<svg width="24" height="24" viewBox="0 0 24 24" fill="none" xmlns="http://www.w3.org/2000/svg">
<rect width="24" height="24" rx="4" fill="#14181F"/>
<path d="M11.4106 10.0729C11.7361 9.7474 12.2638 9.7474 12.5892 10.0729L13.9272 11.4108C14.2527 11.7363 14.2527 12.264 13.9272 12.5895L12.5892 13.9274C12.2638 14.2529 11.7361 14.2529 11.4106 13.9274L10.0726 12.5895C9.74715 12.264 9.74715 11.7363 10.0726 11.4108L11.4106 10.0729Z" fill="#A950FF"/>
<path d="M17.5729 10.0622C17.8925 9.74255 18.4108 9.74255 18.7305 10.0622L20.0895 11.4212C20.4091 11.7409 20.4091 12.2592 20.0895 12.5788L18.7305 13.9378C18.4108 14.2575 17.8925 14.2575 17.5729 13.9378L16.2139 12.5788C15.8942 12.2592 15.8942 11.7409 16.2139 11.4212L17.5729 10.0622Z" fill="#A950FF"/>
<path d="M11.4211 3.91064C11.7408 3.59098 12.259 3.59098 12.5787 3.91064L13.9377 5.26966C14.2574 5.58932 14.2574 6.1076 13.9377 6.42726L12.5787 7.78628C12.259 8.10594 11.7408 8.10594 11.4211 7.78628L10.0621 6.42726C9.74243 6.1076 9.74243 5.58932 10.0621 5.26966L11.4211 3.91064Z" fill="#E9C1FF"/>
<path d="M10.8516 8.335C11.1771 8.66048 11.1771 9.18819 10.8516 9.51368L9.51368 10.8516C9.18819 11.1771 8.66048 11.1771 8.335 10.8516L6.99707 9.51368C6.67158 9.18819 6.67158 8.66048 6.99707 8.335L8.335 6.99706C8.66048 6.67158 9.1882 6.67158 9.51368 6.99706L10.8516 8.335Z" fill="#CD88FF"/>
<path d="M7.78615 11.4212C8.10581 11.7409 8.10581 12.2592 7.78615 12.5788L6.42713 13.9378C6.10747 14.2575 5.5892 14.2575 5.26954 13.9378L3.91052 12.5788C3.59086 12.2592 3.59086 11.7409 3.91052 11.4212L5.26954 10.0622C5.5892 9.74255 6.10747 9.74255 6.42713 10.0622L7.78615 11.4212Z" fill="#A950FF"/>
<path d="M17.0031 8.335C17.3286 8.66048 17.3286 9.18819 17.0031 9.51368L15.6652 10.8516C15.3397 11.1771 14.812 11.1771 14.4865 10.8516L13.1486 9.51368C12.8231 9.18819 12.8231 8.66048 13.1486 8.335L14.4865 6.99706C14.812 6.67158 15.3397 6.67158 15.6652 6.99706L17.0031 8.335Z" fill="#CD88FF"/>
<path d="M13.3166 17.1219C14.0438 17.849 14.0438 19.028 13.3166 19.7552C12.5895 20.4823 11.4105 20.4823 10.6834 19.7552C9.95621 19.028 9.95621 17.849 10.6834 17.1219C11.4105 16.3947 12.5895 16.3947 13.3166 17.1219Z" fill="#F62E76"/>
</svg>
