<svg width="120" height="120" viewBox="0 0 120 120" fill="none" xmlns="http://www.w3.org/2000/svg">
<g filter="url(#filter0_d_27706_2368)">
<rect x="8" y="6" width="104" height="104" rx="12" fill="#1A1C22"/>
<path d="M59.4705 23.4438C60.2182 23.4438 60.9396 23.658 61.5228 24.0947L88.0998 39.1812H88.099C89.2508 39.8011 90.005 41.0018 90.005 42.3801V72.9749C90.005 73.9841 89.6006 74.8988 88.931 75.5597C88.6867 75.8007 88.4068 76.0074 88.099 76.1731L88.0998 76.1739L61.5228 91.2595C60.9396 91.6964 60.2184 91.9111 59.4705 91.9111C58.7213 91.9111 57.9989 91.6957 57.4151 91.2573L30.8413 76.1739C29.69 75.5537 28.936 74.3528 28.936 72.9749V42.3801C28.936 41.371 29.3405 40.4562 30.01 39.7953C30.2542 39.5544 30.5337 39.3468 30.8413 39.1812L57.4151 24.097C57.9988 23.6587 58.7214 23.4439 59.4705 23.4438ZM36.1512 70.8308L55.8633 82.0466V59.7872L36.1512 48.6044V70.8308ZM63.0785 59.7864V82.0466L82.7898 70.8308V48.6044L63.0785 59.7864ZM39.8941 42.3793L59.4705 53.4925L65.5874 50.0251L46.275 38.7457L39.8941 42.3793ZM53.5887 34.6304L72.9345 45.8767L79.0476 42.3808L59.4712 31.2668L53.5887 34.6304Z" fill="#9869F7"/>
<path d="M59.47 20.8091C60.2465 20.8091 60.9914 21.0351 61.5899 21.4931L89.9227 37.7984L90.1401 37.9262C91.2059 38.6024 91.8914 39.7912 91.8914 41.1449V74.2099C91.8914 75.6535 91.1118 76.9093 89.9227 77.5564L61.585 93.8633C60.9872 94.3192 60.2449 94.5457 59.47 94.5457C58.6962 94.5456 57.9546 94.3204 57.3574 93.8657L29.0181 77.5564L28.7998 77.4278C27.7343 76.7514 27.0493 75.5633 27.0493 74.2099V41.1449C27.0493 39.7011 27.8288 38.4454 29.0181 37.7984L57.3525 21.4915C57.9506 21.0346 58.6944 20.8091 59.47 20.8091ZM34.4828 71.9679L55.7533 84.2371V59.8822L34.4828 47.6493V71.9679ZM63.1867 59.8822V84.2371L84.4571 71.9679V47.6493L63.1867 59.8822ZM38.3434 41.144L59.47 53.3033L66.2461 49.4087L45.4043 37.0683L38.3434 41.144ZM52.9436 32.7686L73.8227 45.0726L80.5965 41.1449L59.47 28.9848L52.9436 32.7686Z" stroke="#A9B5FE" stroke-width="0.5"/>
</g>
<defs>
<filter id="filter0_d_27706_2368" x="0" y="0" width="120" height="120" filterUnits="userSpaceOnUse" color-interpolation-filters="sRGB">
<feFlood flood-opacity="0" result="BackgroundImageFix"/>
<feColorMatrix in="SourceAlpha" type="matrix" values="0 0 0 0 0 0 0 0 0 0 0 0 0 0 0 0 0 0 127 0" result="hardAlpha"/>
<feOffset dy="2"/>
<feGaussianBlur stdDeviation="4"/>
<feComposite in2="hardAlpha" operator="out"/>
<feColorMatrix type="matrix" values="0 0 0 0 0 0 0 0 0 0 0 0 0 0 0 0 0 0 0.15 0"/>
<feBlend mode="normal" in2="BackgroundImageFix" result="effect1_dropShadow_27706_2368"/>
<feBlend mode="normal" in="SourceGraphic" in2="effect1_dropShadow_27706_2368" result="shape"/>
</filter>
</defs>
</svg>
