<svg width="80" height="80" viewBox="0 0 80 80" fill="none" xmlns="http://www.w3.org/2000/svg">
<path d="M39.4705 5.44385C40.2182 5.44385 40.9396 5.65804 41.5228 6.09471L68.0998 21.1812H68.099C69.2508 21.8011 70.005 23.0018 70.005 24.3801V54.9749C70.005 55.9841 69.6006 56.8988 68.931 57.5597C68.6867 57.8007 68.4068 58.0074 68.099 58.1731L68.0998 58.1739L41.5228 73.2595C40.9396 73.6964 40.2184 73.9111 39.4705 73.9111C38.7213 73.9111 37.9989 73.6957 37.4151 73.2573L10.8413 58.1739C9.69002 57.5537 8.93604 56.3528 8.93604 54.9749V24.3801C8.93604 23.371 9.34047 22.4562 10.01 21.7953C10.2542 21.5544 10.5337 21.3468 10.8413 21.1812L37.4151 6.09695C37.9988 5.65869 38.7214 5.44388 39.4705 5.44385ZM16.1512 52.8308L35.8633 64.0466V41.7872L16.1512 30.6044V52.8308ZM43.0785 41.7864V64.0466L62.7898 52.8308V30.6044L43.0785 41.7864ZM19.8941 24.3793L39.4705 35.4925L45.5874 32.0251L26.275 20.7457L19.8941 24.3793ZM33.5887 16.6304L52.9345 27.8767L59.0476 24.3808L39.4712 13.2668L33.5887 16.6304Z" fill="#9869F7"/>
<path d="M39.47 2.80908C40.2465 2.80908 40.9914 3.03509 41.5899 3.49309L69.9227 19.7984L70.1401 19.9262C71.2059 20.6024 71.8914 21.7912 71.8914 23.1449V56.2099C71.8914 57.6535 71.1118 58.9093 69.9227 59.5564L41.585 75.8633C40.9872 76.3192 40.2449 76.5457 39.47 76.5457C38.6962 76.5456 37.9546 76.3204 37.3574 75.8657L9.01805 59.5564L8.79975 59.4278C7.73429 58.7514 7.04932 57.5633 7.04932 56.2099V23.1449C7.04932 21.7011 7.82878 20.4454 9.01805 19.7984L37.3525 3.49147C37.9506 3.03459 38.6944 2.80911 39.47 2.80908ZM14.4828 53.9679L35.7533 66.2371V41.8822L14.4828 29.6493V53.9679ZM43.1867 41.8822V66.2371L64.4571 53.9679V29.6493L43.1867 41.8822ZM18.3434 23.144L39.47 35.3033L46.2461 31.4087L25.4043 19.0683L18.3434 23.144ZM32.9436 14.7686L53.8227 27.0726L60.5965 23.1449L39.47 10.9848L32.9436 14.7686Z" stroke="#A9B5FE" stroke-width="0.5"/>
</svg>
