<svg width="57" height="57" viewBox="0 0 57 57" fill="none" xmlns="http://www.w3.org/2000/svg">
<g id="debug=Main">
<g id="Bkg" filter="url(#filter0_i_1386_1701)">
<path d="M0 14.25C0 6.37994 6.37994 0 14.25 0H42.75C50.6201 0 57 6.37994 57 14.25V42.75C57 50.6201 50.6201 57 42.75 57H14.25C6.37994 57 0 50.6201 0 42.75V14.25Z" fill="url(#paint0_linear_1386_1701)"/>
</g>
<g clip-path="url(#paint1_angular_1386_1701_clip_path)" data-figma-skip-parse="true"><g transform="matrix(0 0.0285 -0.0285 0 28.5 28.5)"><foreignObject x="-1035.09" y="-1035.09" width="2070.18" height="2070.18"><div xmlns="http://www.w3.org/1999/xhtml" style="background:conic-gradient(from 90deg,rgba(181, 231, 255, 1) 0deg,rgba(241, 117, 255, 1) 72.6923deg,rgba(241, 117, 255, 0.1) 360deg);height:100%;width:100%;opacity:1"></div></foreignObject></g></g><path id="Stroke" d="M42.75 54.625V57H14.25V54.625H42.75ZM54.625 42.75V14.25C54.625 7.69162 49.3084 2.375 42.75 2.375H14.25C7.69162 2.375 2.375 7.69162 2.375 14.25V42.75C2.375 49.3084 7.69162 54.625 14.25 54.625V57C6.37994 57 0 50.6201 0 42.75V14.25C0 6.37994 6.37994 0 14.25 0H42.75C50.6201 0 57 6.37994 57 14.25V42.75C57 50.6201 50.6201 57 42.75 57V54.625C49.3084 54.625 54.625 49.3084 54.625 42.75Z" data-figma-gradient-fill="{&#34;type&#34;:&#34;GRADIENT_ANGULAR&#34;,&#34;stops&#34;:[{&#34;color&#34;:{&#34;r&#34;:0.71089994907379150,&#34;g&#34;:0.90845167636871338,&#34;b&#34;:1.0,&#34;a&#34;:1.0},&#34;position&#34;:0.0},{&#34;color&#34;:{&#34;r&#34;:0.94509804248809814,&#34;g&#34;:0.45882353186607361,&#34;b&#34;:1.0,&#34;a&#34;:1.0},&#34;position&#34;:0.20192307233810425},{&#34;color&#34;:{&#34;r&#34;:0.94509804248809814,&#34;g&#34;:0.45882353186607361,&#34;b&#34;:1.0,&#34;a&#34;:0.10000000149011612},&#34;position&#34;:1.0}],&#34;stopsVar&#34;:[{&#34;color&#34;:{&#34;r&#34;:0.71089994907379150,&#34;g&#34;:0.90845167636871338,&#34;b&#34;:1.0,&#34;a&#34;:1.0},&#34;position&#34;:0.0},{&#34;color&#34;:{&#34;r&#34;:0.94509804248809814,&#34;g&#34;:0.45882353186607361,&#34;b&#34;:1.0,&#34;a&#34;:1.0},&#34;position&#34;:0.20192307233810425},{&#34;color&#34;:{&#34;r&#34;:0.94509804248809814,&#34;g&#34;:0.45882353186607361,&#34;b&#34;:1.0,&#34;a&#34;:0.10000000149011612},&#34;position&#34;:1.0}],&#34;transform&#34;:{&#34;m00&#34;:3.4902435166328386e-15,&#34;m01&#34;:-57.0,&#34;m02&#34;:57.0,&#34;m10&#34;:57.0,&#34;m11&#34;:3.4902435166328386e-15,&#34;m12&#34;:0.0},&#34;opacity&#34;:1.0,&#34;blendMode&#34;:&#34;NORMAL&#34;,&#34;visible&#34;:true}"/>
<g id="bug-outline">
<path id="Vector" d="M42.1666 20.6667H37.3662C36.5975 19.3 35.5383 18.1042 34.2571 17.25L37.0416 14.5337L34.6329 12.125L30.9258 15.8321C30.14 15.6442 29.3541 15.5417 28.5 15.5417C27.6458 15.5417 26.8771 15.6442 26.0912 15.8321L22.3671 12.125L19.9583 14.5337L22.7258 17.25C21.4446 18.1042 20.4025 19.3171 19.6337 20.6667H14.8333V24.0833H18.4037C18.3012 24.6471 18.25 25.2108 18.25 25.7917V27.5H14.8333V30.9167H18.25V32.625C18.25 33.2058 18.3012 33.7696 18.4037 34.3333H14.8333V37.75H19.6337C22.4696 42.6529 28.7391 44.31 33.625 41.4742C35.1796 40.5858 36.4779 39.2875 37.3662 37.75H42.1666V34.3333H38.5962C38.6987 33.7696 38.75 33.2058 38.75 32.625V30.9167H42.1666V27.5H38.75V25.7917C38.75 25.2108 38.6987 24.6471 38.5962 24.0833H42.1666V20.6667ZM35.3333 32.625C35.3333 34.4373 34.6134 36.1754 33.3319 37.4569C32.0504 38.7384 30.3123 39.4583 28.5 39.4583C26.6877 39.4583 24.9496 38.7384 23.6681 37.4569C22.3866 36.1754 21.6666 34.4373 21.6666 32.625V25.7917C21.6666 23.9794 22.3866 22.2413 23.6681 20.9598C24.9496 19.6783 26.6877 18.9583 28.5 18.9583C30.3123 18.9583 32.0504 19.6783 33.3319 20.9598C34.6134 22.2413 35.3333 23.9794 35.3333 25.7917V32.625ZM31.9166 24.0833V27.5H25.0833V24.0833H31.9166ZM25.0833 30.9167H31.9166V34.3333H25.0833V30.9167Z" fill="url(#paint2_linear_1386_1701)"/>
</g>
</g>
<defs>
<filter id="filter0_i_1386_1701" x="0" y="0" width="57" height="59" filterUnits="userSpaceOnUse" color-interpolation-filters="sRGB">
<feFlood flood-opacity="0" result="BackgroundImageFix"/>
<feBlend mode="normal" in="SourceGraphic" in2="BackgroundImageFix" result="shape"/>
<feColorMatrix in="SourceAlpha" type="matrix" values="0 0 0 0 0 0 0 0 0 0 0 0 0 0 0 0 0 0 127 0" result="hardAlpha"/>
<feOffset dy="2"/>
<feGaussianBlur stdDeviation="1"/>
<feComposite in2="hardAlpha" operator="arithmetic" k2="-1" k3="1"/>
<feColorMatrix type="matrix" values="0 0 0 0 0 0 0 0 0 0 0 0 0 0 0 0 0 0 0.75 0"/>
<feBlend mode="normal" in2="shape" result="effect1_innerShadow_1386_1701"/>
</filter>
<clipPath id="paint1_angular_1386_1701_clip_path"><path id="Stroke" d="M42.75 54.625V57H14.25V54.625H42.75ZM54.625 42.75V14.25C54.625 7.69162 49.3084 2.375 42.75 2.375H14.25C7.69162 2.375 2.375 7.69162 2.375 14.25V42.75C2.375 49.3084 7.69162 54.625 14.25 54.625V57C6.37994 57 0 50.6201 0 42.75V14.25C0 6.37994 6.37994 0 14.25 0H42.75C50.6201 0 57 6.37994 57 14.25V42.75C57 50.6201 50.6201 57 42.75 57V54.625C49.3084 54.625 54.625 49.3084 54.625 42.75Z"/></clipPath><linearGradient id="paint0_linear_1386_1701" x1="52.25" y1="48.6875" x2="8.3125" y2="7.125" gradientUnits="userSpaceOnUse">
<stop stop-color="#01000B"/>
<stop offset="1" stop-color="#520188"/>
</linearGradient>
<linearGradient id="paint2_linear_1386_1701" x1="30.2083" y1="35.1752" x2="30.2083" y2="10.2041" gradientUnits="userSpaceOnUse">
<stop stop-color="#91F4FF"/>
<stop offset="0.5" stop-color="#D67EE2"/>
</linearGradient>
</defs>
</svg>
