<svg width="57" height="57" viewBox="0 0 57 57" fill="none" xmlns="http://www.w3.org/2000/svg">
<g id="debug=Return">
<g id="Bkg" filter="url(#filter0_i_1386_1709)">
<path d="M0 14.25C0 6.37994 6.37994 0 14.25 0H42.75C50.6201 0 57 6.37994 57 14.25V42.75C57 50.6201 50.6201 57 42.75 57H14.25C6.37994 57 0 50.6201 0 42.75V14.25Z" fill="url(#paint0_linear_1386_1709)"/>
</g>
<g clip-path="url(#paint1_angular_1386_1709_clip_path)" data-figma-skip-parse="true"><g transform="matrix(0 0.0285 -0.0285 0 28.5 28.5)"><foreignObject x="-1035.09" y="-1035.09" width="2070.18" height="2070.18"><div xmlns="http://www.w3.org/1999/xhtml" style="background:conic-gradient(from 90deg,rgba(181, 231, 255, 1) 0deg,rgba(241, 117, 255, 1) 72.6923deg,rgba(241, 117, 255, 0.1) 360deg);height:100%;width:100%;opacity:1"></div></foreignObject></g></g><path id="Stroke" d="M42.75 54.625V57H14.25V54.625H42.75ZM54.625 42.75V14.25C54.625 7.69162 49.3084 2.375 42.75 2.375H14.25C7.69162 2.375 2.375 7.69162 2.375 14.25V42.75C2.375 49.3084 7.69162 54.625 14.25 54.625V57C6.37994 57 0 50.6201 0 42.75V14.25C0 6.37994 6.37994 0 14.25 0H42.75C50.6201 0 57 6.37994 57 14.25V42.75C57 50.6201 50.6201 57 42.75 57V54.625C49.3084 54.625 54.625 49.3084 54.625 42.75Z" data-figma-gradient-fill="{&#34;type&#34;:&#34;GRADIENT_ANGULAR&#34;,&#34;stops&#34;:[{&#34;color&#34;:{&#34;r&#34;:0.71089994907379150,&#34;g&#34;:0.90845167636871338,&#34;b&#34;:1.0,&#34;a&#34;:1.0},&#34;position&#34;:0.0},{&#34;color&#34;:{&#34;r&#34;:0.94509804248809814,&#34;g&#34;:0.45882353186607361,&#34;b&#34;:1.0,&#34;a&#34;:1.0},&#34;position&#34;:0.20192307233810425},{&#34;color&#34;:{&#34;r&#34;:0.94509804248809814,&#34;g&#34;:0.45882353186607361,&#34;b&#34;:1.0,&#34;a&#34;:0.10000000149011612},&#34;position&#34;:1.0}],&#34;stopsVar&#34;:[{&#34;color&#34;:{&#34;r&#34;:0.71089994907379150,&#34;g&#34;:0.90845167636871338,&#34;b&#34;:1.0,&#34;a&#34;:1.0},&#34;position&#34;:0.0},{&#34;color&#34;:{&#34;r&#34;:0.94509804248809814,&#34;g&#34;:0.45882353186607361,&#34;b&#34;:1.0,&#34;a&#34;:1.0},&#34;position&#34;:0.20192307233810425},{&#34;color&#34;:{&#34;r&#34;:0.94509804248809814,&#34;g&#34;:0.45882353186607361,&#34;b&#34;:1.0,&#34;a&#34;:0.10000000149011612},&#34;position&#34;:1.0}],&#34;transform&#34;:{&#34;m00&#34;:3.4902435166328386e-15,&#34;m01&#34;:-57.0,&#34;m02&#34;:57.0,&#34;m10&#34;:57.0,&#34;m11&#34;:3.4902435166328386e-15,&#34;m12&#34;:0.0},&#34;opacity&#34;:1.0,&#34;blendMode&#34;:&#34;NORMAL&#34;,&#34;visible&#34;:true}"/>
<g id="bug-check-outline">
<path id="Union" d="M41.2998 36.0703L38.8701 38.5H46V43.5H44.5V40H38.8701L41.2998 42.4297L40.2402 43.5L36 39.25L40.2402 35L41.2998 36.0703ZM37.333 14.8252L34.5488 17.542C35.8299 18.3961 36.8895 19.5915 37.6582 20.958H42.458V24.375H38.8877C38.9902 24.9386 39.042 25.5023 39.042 26.083V27.792H42.458V31.208H39.042V31.8066C37.7438 32.2678 36.5479 32.9849 35.54 33.9072C35.6253 33.5829 35.625 33.2414 35.625 32.917V26.083C35.6248 22.3079 32.5671 19.2502 28.792 19.25C25.0167 19.25 21.9582 22.3078 21.958 26.083V32.917C21.9581 36.6923 25.0167 39.75 28.792 39.75C30.1585 39.7499 31.5083 39.34 32.6357 38.5713C32.3624 39.5107 32.2081 40.4844 32.208 41.458V42.5684C27.5615 44.2082 22.4029 42.3125 19.9258 38.042H15.125V34.625H18.6953C18.5928 34.0614 18.542 33.4977 18.542 32.917V31.208H15.125V27.792H18.542V26.083C18.542 25.5023 18.5928 24.9386 18.6953 24.375H15.125V20.958H19.9258C20.6945 19.6086 21.7365 18.3961 23.0176 17.542L20.25 14.8252L22.6592 12.417L26.3828 16.124C27.1686 15.9361 27.9378 15.833 28.792 15.833C29.646 15.833 30.432 15.9361 31.2178 16.124L34.9248 12.417L37.333 14.8252ZM32.208 34.625H25.375V31.208H32.208V34.625ZM32.208 27.792H25.375V24.375H32.208V27.792Z" fill="url(#paint2_linear_1386_1709)"/>
</g>
</g>
<defs>
<filter id="filter0_i_1386_1709" x="0" y="0" width="57" height="59" filterUnits="userSpaceOnUse" color-interpolation-filters="sRGB">
<feFlood flood-opacity="0" result="BackgroundImageFix"/>
<feBlend mode="normal" in="SourceGraphic" in2="BackgroundImageFix" result="shape"/>
<feColorMatrix in="SourceAlpha" type="matrix" values="0 0 0 0 0 0 0 0 0 0 0 0 0 0 0 0 0 0 127 0" result="hardAlpha"/>
<feOffset dy="2"/>
<feGaussianBlur stdDeviation="1"/>
<feComposite in2="hardAlpha" operator="arithmetic" k2="-1" k3="1"/>
<feColorMatrix type="matrix" values="0 0 0 0 0 0 0 0 0 0 0 0 0 0 0 0 0 0 0.75 0"/>
<feBlend mode="normal" in2="shape" result="effect1_innerShadow_1386_1709"/>
</filter>
<clipPath id="paint1_angular_1386_1709_clip_path"><path id="Stroke" d="M42.75 54.625V57H14.25V54.625H42.75ZM54.625 42.75V14.25C54.625 7.69162 49.3084 2.375 42.75 2.375H14.25C7.69162 2.375 2.375 7.69162 2.375 14.25V42.75C2.375 49.3084 7.69162 54.625 14.25 54.625V57C6.37994 57 0 50.6201 0 42.75V14.25C0 6.37994 6.37994 0 14.25 0H42.75C50.6201 0 57 6.37994 57 14.25V42.75C57 50.6201 50.6201 57 42.75 57V54.625C49.3084 54.625 54.625 49.3084 54.625 42.75Z"/></clipPath><linearGradient id="paint0_linear_1386_1709" x1="52.25" y1="48.6875" x2="8.3125" y2="7.125" gradientUnits="userSpaceOnUse">
<stop stop-color="#01000B"/>
<stop offset="1" stop-color="#520188"/>
</linearGradient>
<linearGradient id="paint2_linear_1386_1709" x1="32.4922" y1="35.7292" x2="32.4922" y2="10.4743" gradientUnits="userSpaceOnUse">
<stop stop-color="#91F4FF"/>
<stop offset="0.5" stop-color="#D67EE2"/>
</linearGradient>
</defs>
</svg>
