<svg width="57" height="57" viewBox="0 0 57 57" fill="none" xmlns="http://www.w3.org/2000/svg">
    <g id="output=Output&#226;&#128;&#139;Values">
        <g id="Bkg" filter="url(#filter0_i_1386_1788)">
            <path d="M0 14.25C0 6.37994 6.37994 0 14.25 0H42.75C50.6201 0 57 6.37994 57 14.25V42.75C57 50.6201 50.6201 57 42.75 57H14.25C6.37994 57 0 50.6201 0 42.75V14.25Z" fill="url(#paint0_linear_1386_1788)"/>
        </g>
        <g id="table-arrow-right">
            <path id="Vector" d="M15.8334 14.125H39.75C41.6463 14.125 43.1667 15.6625 43.1667 17.5417V29.6367C40.5188 29.1925 37.905 29.8075 35.7867 31.2083H29.5V38.0417H31.345C31.1571 39.2033 31.1571 40.3479 31.345 41.4583H15.8334C13.9542 41.4583 12.4167 39.9379 12.4167 38.0417V17.5417C12.4167 15.6625 13.9542 14.125 15.8334 14.125ZM15.8334 20.9583V27.7917H26.0834V20.9583H15.8334ZM29.5 20.9583V27.7917H39.75V20.9583H29.5ZM15.8334 31.2083V38.0417H26.0834V31.2083H15.8334ZM42.21 44.875V41.4583H35.3767V38.0417H42.21V34.625L47.335 39.75L42.21 44.875Z" fill="url(#paint1_linear_1386_1788)"/>
        </g>
        <g clip-path="url(#paint2_angular_1386_1788_clip_path)" data-figma-skip-parse="true"><g transform="matrix(0 0.0285 -0.0285 0 28.5 28.5)"><foreignObject x="-1035.09" y="-1035.09" width="2070.18" height="2070.18"><div xmlns="http://www.w3.org/1999/xhtml" style="background:conic-gradient(from 90deg,rgba(181, 231, 255, 1) 0deg,rgba(241, 117, 255, 1) 72.6923deg,rgba(241, 117, 255, 0.1) 360deg);height:100%;width:100%;opacity:1"></div></foreignObject></g></g><path id="Stroke" d="M42.75 54.625V57H14.25V54.625H42.75ZM54.625 42.75V14.25C54.625 7.69162 49.3084 2.375 42.75 2.375H14.25C7.69162 2.375 2.375 7.69162 2.375 14.25V42.75C2.375 49.3084 7.69162 54.625 14.25 54.625V57C6.37994 57 0 50.6201 0 42.75V14.25C0 6.37994 6.37994 0 14.25 0H42.75C50.6201 0 57 6.37994 57 14.25V42.75C57 50.6201 50.6201 57 42.75 57V54.625C49.3084 54.625 54.625 49.3084 54.625 42.75Z" data-figma-gradient-fill="{&#34;type&#34;:&#34;GRADIENT_ANGULAR&#34;,&#34;stops&#34;:[{&#34;color&#34;:{&#34;r&#34;:0.71089994907379150,&#34;g&#34;:0.90845167636871338,&#34;b&#34;:1.0,&#34;a&#34;:1.0},&#34;position&#34;:0.0},{&#34;color&#34;:{&#34;r&#34;:0.94509804248809814,&#34;g&#34;:0.45882353186607361,&#34;b&#34;:1.0,&#34;a&#34;:1.0},&#34;position&#34;:0.20192307233810425},{&#34;color&#34;:{&#34;r&#34;:0.94509804248809814,&#34;g&#34;:0.45882353186607361,&#34;b&#34;:1.0,&#34;a&#34;:0.10000000149011612},&#34;position&#34;:1.0}],&#34;stopsVar&#34;:[{&#34;color&#34;:{&#34;r&#34;:0.71089994907379150,&#34;g&#34;:0.90845167636871338,&#34;b&#34;:1.0,&#34;a&#34;:1.0},&#34;position&#34;:0.0},{&#34;color&#34;:{&#34;r&#34;:0.94509804248809814,&#34;g&#34;:0.45882353186607361,&#34;b&#34;:1.0,&#34;a&#34;:1.0},&#34;position&#34;:0.20192307233810425},{&#34;color&#34;:{&#34;r&#34;:0.94509804248809814,&#34;g&#34;:0.45882353186607361,&#34;b&#34;:1.0,&#34;a&#34;:0.10000000149011612},&#34;position&#34;:1.0}],&#34;transform&#34;:{&#34;m00&#34;:3.4902435166328386e-15,&#34;m01&#34;:-57.0,&#34;m02&#34;:57.0,&#34;m10&#34;:57.0,&#34;m11&#34;:3.4902435166328386e-15,&#34;m12&#34;:0.0},&#34;opacity&#34;:1.0,&#34;blendMode&#34;:&#34;NORMAL&#34;,&#34;visible&#34;:true}"/>
    </g>
    <defs>
        <filter id="filter0_i_1386_1788" x="0" y="0" width="57" height="59" filterUnits="userSpaceOnUse" color-interpolation-filters="sRGB">
            <feFlood flood-opacity="0" result="BackgroundImageFix"/>
            <feBlend mode="normal" in="SourceGraphic" in2="BackgroundImageFix" result="shape"/>
            <feColorMatrix in="SourceAlpha" type="matrix" values="0 0 0 0 0 0 0 0 0 0 0 0 0 0 0 0 0 0 127 0" result="hardAlpha"/>
            <feOffset dy="2"/>
            <feGaussianBlur stdDeviation="1"/>
            <feComposite in2="hardAlpha" operator="arithmetic" k2="-1" k3="1"/>
            <feColorMatrix type="matrix" values="0 0 0 0 0 0 0 0 0 0 0 0 0 0 0 0 0 0 0.75 0"/>
            <feBlend mode="normal" in2="shape" result="effect1_innerShadow_1386_1788"/>
        </filter>
        <clipPath id="paint2_angular_1386_1788_clip_path"><path id="Stroke" d="M42.75 54.625V57H14.25V54.625H42.75ZM54.625 42.75V14.25C54.625 7.69162 49.3084 2.375 42.75 2.375H14.25C7.69162 2.375 2.375 7.69162 2.375 14.25V42.75C2.375 49.3084 7.69162 54.625 14.25 54.625V57C6.37994 57 0 50.6201 0 42.75V14.25C0 6.37994 6.37994 0 14.25 0H42.75C50.6201 0 57 6.37994 57 14.25V42.75C57 50.6201 50.6201 57 42.75 57V54.625C49.3084 54.625 54.625 49.3084 54.625 42.75Z"/></clipPath><linearGradient id="paint0_linear_1386_1788" x1="52.25" y1="48.6875" x2="8.3125" y2="7.125" gradientUnits="userSpaceOnUse">
        <stop stop-color="#01000B"/>
        <stop offset="1" stop-color="#520188"/>
    </linearGradient>
        <linearGradient id="paint1_linear_1386_1788" x1="32.0583" y1="37.1875" x2="32.0583" y2="12.2031" gradientUnits="userSpaceOnUse">
            <stop stop-color="#91F4FF"/>
            <stop offset="0.5" stop-color="#D67EE2"/>
        </linearGradient>
    </defs>
</svg>