<svg width="1375" height="700" viewBox="0 0 1375 700" fill="none" xmlns="http://www.w3.org/2000/svg">
<g opacity="0.5">
<mask id="mask0_10406_66584" style="mask-type:luminance" maskUnits="userSpaceOnUse" x="-750" y="-174" width="1222" height="864">
<g opacity="0.12">
<rect x="-16.7866" y="-50.2836" width="61.0548" height="61.0548" stroke="white" stroke-width="0.642682"/>
<rect x="44.2681" y="-50.2836" width="61.0548" height="61.0548" stroke="white" stroke-width="0.642682"/>
<rect x="105.323" y="-50.2836" width="61.0548" height="61.0548" stroke="white" stroke-width="0.642682"/>
<rect x="166.377" y="-50.2836" width="61.0548" height="61.0548" stroke="white" stroke-width="0.642682"/>
<rect x="227.432" y="-50.2836" width="61.0548" height="61.0548" stroke="white" stroke-width="0.642682"/>
<rect x="288.487" y="-50.2836" width="61.0548" height="61.0548" stroke="white" stroke-width="0.642682"/>
<rect x="349.542" y="-50.2836" width="61.0548" height="61.0548" stroke="white" stroke-width="0.642682"/>
<rect x="410.596" y="-50.2836" width="61.0548" height="61.0548" stroke="white" stroke-width="0.642682"/>
<rect x="-16.7866" y="11.4141" width="61.0548" height="61.0548" stroke="white" stroke-width="0.642682"/>
<rect x="44.2681" y="11.4141" width="61.0548" height="61.0548" stroke="white" stroke-width="0.642682"/>
<rect x="105.323" y="11.4141" width="61.0548" height="61.0548" stroke="white" stroke-width="0.642682"/>
<rect x="166.377" y="11.4141" width="61.0548" height="61.0548" stroke="white" stroke-width="0.642682"/>
<rect x="227.432" y="11.4141" width="61.0548" height="61.0548" stroke="white" stroke-width="0.642682"/>
<rect x="288.487" y="11.4141" width="61.0548" height="61.0548" stroke="white" stroke-width="0.642682"/>
<rect x="349.542" y="11.4141" width="61.0548" height="61.0548" stroke="white" stroke-width="0.642682"/>
<rect x="410.596" y="11.4141" width="61.0548" height="61.0548" stroke="white" stroke-width="0.642682"/>
<rect x="-17.1079" y="72.79" width="61.6975" height="61.6975" fill="white"/>
<rect x="44.2681" y="73.1114" width="61.0548" height="61.0548" stroke="white" stroke-width="0.642682"/>
<rect x="105.001" y="72.79" width="61.6975" height="61.6975" fill="white"/>
<rect x="166.377" y="73.1114" width="61.0548" height="61.0548" stroke="white" stroke-width="0.642682"/>
<rect x="227.432" y="73.1114" width="61.0548" height="61.0548" stroke="white" stroke-width="0.642682"/>
<rect x="288.487" y="73.1114" width="61.0548" height="61.0548" stroke="white" stroke-width="0.642682"/>
<rect x="349.542" y="73.1114" width="61.0548" height="61.0548" stroke="white" stroke-width="0.642682"/>
<rect x="410.596" y="73.1114" width="61.0548" height="61.0548" stroke="white" stroke-width="0.642682"/>
<rect x="-16.7866" y="134.809" width="61.0548" height="61.0548" stroke="white" stroke-width="0.642682"/>
<rect x="44.2681" y="134.809" width="61.0548" height="61.0548" stroke="white" stroke-width="0.642682"/>
<rect x="105.323" y="134.809" width="61.0548" height="61.0548" stroke="white" stroke-width="0.642682"/>
<rect x="166.377" y="134.809" width="61.0548" height="61.0548" stroke="white" stroke-width="0.642682"/>
<rect x="227.432" y="134.809" width="61.0548" height="61.0548" stroke="white" stroke-width="0.642682"/>
<rect x="288.487" y="134.809" width="61.0548" height="61.0548" stroke="white" stroke-width="0.642682"/>
<rect x="349.542" y="134.809" width="61.0548" height="61.0548" stroke="white" stroke-width="0.642682"/>
<rect x="410.596" y="134.809" width="61.0548" height="61.0548" stroke="white" stroke-width="0.642682"/>
<rect x="-16.7866" y="196.506" width="61.0548" height="61.0548" stroke="white" stroke-width="0.642682"/>
<rect x="44.2681" y="196.506" width="61.0548" height="61.0548" stroke="white" stroke-width="0.642682"/>
<rect x="105.323" y="196.506" width="61.0548" height="61.0548" stroke="white" stroke-width="0.642682"/>
<rect x="166.377" y="196.506" width="61.0548" height="61.0548" stroke="white" stroke-width="0.642682"/>
<rect x="227.432" y="196.506" width="61.0548" height="61.0548" stroke="white" stroke-width="0.642682"/>
<rect x="288.487" y="196.506" width="61.0548" height="61.0548" stroke="white" stroke-width="0.642682"/>
<rect x="349.542" y="196.506" width="61.0548" height="61.0548" stroke="white" stroke-width="0.642682"/>
<rect x="410.596" y="196.506" width="61.0548" height="61.0548" stroke="white" stroke-width="0.642682"/>
<rect x="-17.1079" y="257.882" width="61.6975" height="61.6975" fill="white"/>
<rect x="44.2681" y="258.203" width="61.0548" height="61.0548" stroke="white" stroke-width="0.642682"/>
<rect x="105.001" y="257.882" width="61.6975" height="61.6975" fill="white"/>
<rect x="166.377" y="258.203" width="61.0548" height="61.0548" stroke="white" stroke-width="0.642682"/>
<rect x="227.432" y="258.203" width="61.0548" height="61.0548" stroke="white" stroke-width="0.642682"/>
<rect x="288.487" y="258.203" width="61.0548" height="61.0548" stroke="white" stroke-width="0.642682"/>
<rect x="349.542" y="258.203" width="61.0548" height="61.0548" stroke="white" stroke-width="0.642682"/>
<rect x="410.596" y="258.203" width="61.0548" height="61.0548" stroke="white" stroke-width="0.642682"/>
<rect x="-16.7866" y="319.901" width="61.0548" height="61.0548" stroke="white" stroke-width="0.642682"/>
<rect x="43.9468" y="319.58" width="61.6975" height="61.6975" fill="white"/>
<rect x="105.323" y="319.901" width="61.0548" height="61.0548" stroke="white" stroke-width="0.642682"/>
<rect x="166.377" y="319.901" width="61.0548" height="61.0548" stroke="white" stroke-width="0.642682"/>
<rect x="227.432" y="319.901" width="61.0548" height="61.0548" stroke="white" stroke-width="0.642682"/>
<rect x="288.487" y="319.901" width="61.0548" height="61.0548" stroke="white" stroke-width="0.642682"/>
<rect x="349.542" y="319.901" width="61.0548" height="61.0548" stroke="white" stroke-width="0.642682"/>
<rect x="410.596" y="319.901" width="61.0548" height="61.0548" stroke="white" stroke-width="0.642682"/>
<rect x="-17.1079" y="381.277" width="61.6975" height="61.6975" fill="white"/>
<rect x="44.2681" y="381.599" width="61.0548" height="61.0548" stroke="white" stroke-width="0.642682"/>
<rect x="105.323" y="381.599" width="61.0548" height="61.0548" stroke="white" stroke-width="0.642682"/>
<rect x="166.377" y="381.599" width="61.0548" height="61.0548" stroke="white" stroke-width="0.642682"/>
<rect x="227.432" y="381.599" width="61.0548" height="61.0548" stroke="white" stroke-width="0.642682"/>
<rect x="288.487" y="381.599" width="61.0548" height="61.0548" stroke="white" stroke-width="0.642682"/>
<rect x="349.542" y="381.599" width="61.0548" height="61.0548" stroke="white" stroke-width="0.642682"/>
<rect x="410.596" y="381.599" width="61.0548" height="61.0548" stroke="white" stroke-width="0.642682"/>
<rect x="-16.7866" y="443.296" width="61.0548" height="61.0548" stroke="white" stroke-width="0.642682"/>
<rect x="44.2681" y="443.296" width="61.0548" height="61.0548" stroke="white" stroke-width="0.642682"/>
<rect x="105.323" y="443.296" width="61.0548" height="61.0548" stroke="white" stroke-width="0.642682"/>
<rect x="166.377" y="443.296" width="61.0548" height="61.0548" stroke="white" stroke-width="0.642682"/>
<rect x="227.432" y="443.296" width="61.0548" height="61.0548" stroke="white" stroke-width="0.642682"/>
<rect x="288.487" y="443.296" width="61.0548" height="61.0548" stroke="white" stroke-width="0.642682"/>
<rect x="349.542" y="443.296" width="61.0548" height="61.0548" stroke="white" stroke-width="0.642682"/>
<rect x="410.596" y="443.296" width="61.0548" height="61.0548" stroke="white" stroke-width="0.642682"/>
<rect x="-16.7866" y="504.993" width="61.0548" height="61.0548" stroke="white" stroke-width="0.642682"/>
<rect x="44.2681" y="504.993" width="61.0548" height="61.0548" stroke="white" stroke-width="0.642682"/>
<rect x="105.323" y="504.993" width="61.0548" height="61.0548" stroke="white" stroke-width="0.642682"/>
<rect x="166.377" y="504.993" width="61.0548" height="61.0548" stroke="white" stroke-width="0.642682"/>
<rect x="227.432" y="504.993" width="61.0548" height="61.0548" stroke="white" stroke-width="0.642682"/>
<rect x="288.487" y="504.993" width="61.0548" height="61.0548" stroke="white" stroke-width="0.642682"/>
<rect x="349.542" y="504.993" width="61.0548" height="61.0548" stroke="white" stroke-width="0.642682"/>
<rect x="410.596" y="504.993" width="61.0548" height="61.0548" stroke="white" stroke-width="0.642682"/>
</g>
</mask>
<g mask="url(#mask0_10406_66584)">
<g filter="url(#filter0_f_10406_66584)">
<ellipse cx="432.838" cy="230.712" rx="432.838" ry="230.712" transform="matrix(0.982365 -0.186971 0.35295 0.935642 318.748 -72.125)" fill="#571FD0"/>
</g>
<g filter="url(#filter1_f_10406_66584)">
<ellipse cx="289.434" cy="171.306" rx="289.434" ry="171.306" transform="matrix(0.982365 -0.186971 0.35295 0.935642 -76.3364 55.668)" fill="#9BA7FF"/>
</g>
</g>
<mask id="mask1_10406_66584" style="mask-type:luminance" maskUnits="userSpaceOnUse" x="470" y="-174" width="1284" height="864">
<g opacity="0.12">
<rect x="-0.321341" y="0.321341" width="61.0548" height="61.0548" transform="matrix(-1 0 0 1 1386.79 -50.605)" stroke="white" stroke-width="0.642682"/>
<rect x="-0.321341" y="0.321341" width="61.0548" height="61.0548" transform="matrix(-1 0 0 1 1325.74 -50.605)" stroke="white" stroke-width="0.642682"/>
<rect x="-0.321341" y="0.321341" width="61.0548" height="61.0548" transform="matrix(-1 0 0 1 1264.68 -50.605)" stroke="white" stroke-width="0.642682"/>
<rect x="-0.321341" y="0.321341" width="61.0548" height="61.0548" transform="matrix(-1 0 0 1 1203.63 -50.605)" stroke="white" stroke-width="0.642682"/>
<rect x="-0.321341" y="0.321341" width="61.0548" height="61.0548" transform="matrix(-1 0 0 1 1142.57 -50.605)" stroke="white" stroke-width="0.642682"/>
<rect x="-0.321341" y="0.321341" width="61.0548" height="61.0548" transform="matrix(-1 0 0 1 1081.52 -50.605)" stroke="white" stroke-width="0.642682"/>
<rect x="-0.321341" y="0.321341" width="61.0548" height="61.0548" transform="matrix(-1 0 0 1 1020.46 -50.605)" stroke="white" stroke-width="0.642682"/>
<rect x="-0.321341" y="0.321341" width="61.0548" height="61.0548" transform="matrix(-1 0 0 1 959.41 -50.605)" stroke="white" stroke-width="0.642682"/>
<rect x="-0.321341" y="0.321341" width="61.0548" height="61.0548" transform="matrix(-1 0 0 1 898.355 -50.605)" stroke="white" stroke-width="0.642682"/>
<rect x="-0.321341" y="0.321341" width="61.0548" height="61.0548" transform="matrix(-1 0 0 1 837.301 -50.605)" stroke="white" stroke-width="0.642682"/>
<rect x="-0.321341" y="0.321341" width="61.0548" height="61.0548" transform="matrix(-1 0 0 1 776.246 -50.605)" stroke="white" stroke-width="0.642682"/>
<rect x="-0.321341" y="0.321341" width="61.0548" height="61.0548" transform="matrix(-1 0 0 1 715.191 -50.605)" stroke="white" stroke-width="0.642682"/>
<rect x="-0.321341" y="0.321341" width="61.0548" height="61.0548" transform="matrix(-1 0 0 1 654.137 -50.605)" stroke="white" stroke-width="0.642682"/>
<rect x="-0.321341" y="0.321341" width="61.0548" height="61.0548" transform="matrix(-1 0 0 1 593.082 -50.605)" stroke="white" stroke-width="0.642682"/>
<rect x="-0.321341" y="0.321341" width="61.0548" height="61.0548" transform="matrix(-1 0 0 1 1386.79 11.0928)" stroke="white" stroke-width="0.642682"/>
<rect x="-0.321341" y="0.321341" width="61.0548" height="61.0548" transform="matrix(-1 0 0 1 1325.74 11.0928)" stroke="white" stroke-width="0.642682"/>
<rect x="-0.321341" y="0.321341" width="61.0548" height="61.0548" transform="matrix(-1 0 0 1 1264.68 11.0928)" stroke="white" stroke-width="0.642682"/>
<rect x="-0.321341" y="0.321341" width="61.0548" height="61.0548" transform="matrix(-1 0 0 1 1203.63 11.0928)" stroke="white" stroke-width="0.642682"/>
<rect x="-0.321341" y="0.321341" width="61.0548" height="61.0548" transform="matrix(-1 0 0 1 1142.57 11.0928)" stroke="white" stroke-width="0.642682"/>
<rect x="-0.321341" y="0.321341" width="61.0548" height="61.0548" transform="matrix(-1 0 0 1 1081.52 11.0928)" stroke="white" stroke-width="0.642682"/>
<rect x="-0.321341" y="0.321341" width="61.0548" height="61.0548" transform="matrix(-1 0 0 1 1020.46 11.0928)" stroke="white" stroke-width="0.642682"/>
<rect x="-0.321341" y="0.321341" width="61.0548" height="61.0548" transform="matrix(-1 0 0 1 959.41 11.0928)" stroke="white" stroke-width="0.642682"/>
<rect x="-0.321341" y="0.321341" width="61.0548" height="61.0548" transform="matrix(-1 0 0 1 898.355 11.0928)" stroke="white" stroke-width="0.642682"/>
<rect x="-0.321341" y="0.321341" width="61.0548" height="61.0548" transform="matrix(-1 0 0 1 837.301 11.0928)" stroke="white" stroke-width="0.642682"/>
<rect x="-0.321341" y="0.321341" width="61.0548" height="61.0548" transform="matrix(-1 0 0 1 776.246 11.0928)" stroke="white" stroke-width="0.642682"/>
<rect x="-0.321341" y="0.321341" width="61.0548" height="61.0548" transform="matrix(-1 0 0 1 715.191 11.0928)" stroke="white" stroke-width="0.642682"/>
<rect x="-0.321341" y="0.321341" width="61.0548" height="61.0548" transform="matrix(-1 0 0 1 654.137 11.0928)" stroke="white" stroke-width="0.642682"/>
<rect x="-0.321341" y="0.321341" width="61.0548" height="61.0548" transform="matrix(-1 0 0 1 593.082 11.0928)" stroke="white" stroke-width="0.642682"/>
<rect x="-0.321341" y="0.321341" width="61.0548" height="61.0548" transform="matrix(-1 0 0 1 1386.79 72.79)" stroke="white" stroke-width="0.642682"/>
<rect width="61.6975" height="61.6975" transform="matrix(-1 0 0 1 1326.38 72.79)" fill="white"/>
<rect x="-0.321341" y="0.321341" width="61.0548" height="61.0548" transform="matrix(-1 0 0 1 1264.68 72.79)" stroke="white" stroke-width="0.642682"/>
<rect x="-0.321341" y="0.321341" width="61.0548" height="61.0548" transform="matrix(-1 0 0 1 1203.63 72.79)" stroke="white" stroke-width="0.642682"/>
<rect x="-0.321341" y="0.321341" width="61.0548" height="61.0548" transform="matrix(-1 0 0 1 1142.57 72.79)" stroke="white" stroke-width="0.642682"/>
<rect x="-0.321341" y="0.321341" width="61.0548" height="61.0548" transform="matrix(-1 0 0 1 1081.52 72.79)" stroke="white" stroke-width="0.642682"/>
<rect x="-0.321341" y="0.321341" width="61.0548" height="61.0548" transform="matrix(-1 0 0 1 1020.46 72.79)" stroke="white" stroke-width="0.642682"/>
<rect x="-0.321341" y="0.321341" width="61.0548" height="61.0548" transform="matrix(-1 0 0 1 898.355 72.79)" stroke="white" stroke-width="0.642682"/>
<rect width="61.6975" height="61.6975" transform="matrix(-1 0 0 1 837.943 72.79)" fill="white"/>
<rect x="-0.321341" y="0.321341" width="61.0548" height="61.0548" transform="matrix(-1 0 0 1 776.246 72.79)" stroke="white" stroke-width="0.642682"/>
<rect x="-0.321341" y="0.321341" width="61.0548" height="61.0548" transform="matrix(-1 0 0 1 715.191 72.79)" stroke="white" stroke-width="0.642682"/>
<rect x="-0.321341" y="0.321341" width="61.0548" height="61.0548" transform="matrix(-1 0 0 1 654.137 72.79)" stroke="white" stroke-width="0.642682"/>
<rect x="-0.321341" y="0.321341" width="61.0548" height="61.0548" transform="matrix(-1 0 0 1 593.082 72.79)" stroke="white" stroke-width="0.642682"/>
<rect x="-0.321341" y="0.321341" width="61.0548" height="61.0548" transform="matrix(-1 0 0 1 532.027 72.79)" stroke="white" stroke-width="0.642682"/>
<rect width="61.6975" height="61.6975" transform="matrix(-1 0 0 1 1387.44 134.487)" fill="white"/>
<rect x="-0.321341" y="0.321341" width="61.0548" height="61.0548" transform="matrix(-1 0 0 1 1325.74 134.487)" stroke="white" stroke-width="0.642682"/>
<rect x="-0.321341" y="0.321341" width="61.0548" height="61.0548" transform="matrix(-1 0 0 1 1264.68 134.487)" stroke="white" stroke-width="0.642682"/>
<rect x="-0.321341" y="0.321341" width="61.0548" height="61.0548" transform="matrix(-1 0 0 1 1203.63 134.487)" stroke="white" stroke-width="0.642682"/>
<rect x="-0.321341" y="0.321341" width="61.0548" height="61.0548" transform="matrix(-1 0 0 1 1142.57 134.487)" stroke="white" stroke-width="0.642682"/>
<rect width="61.6975" height="61.6975" transform="matrix(-1 0 0 1 1082.16 134.487)" fill="white"/>
<rect x="-0.321341" y="0.321341" width="61.0548" height="61.0548" transform="matrix(-1 0 0 1 1020.46 134.487)" stroke="white" stroke-width="0.642682"/>
<rect x="-0.321341" y="0.321341" width="61.0548" height="61.0548" transform="matrix(-1 0 0 1 898.355 134.487)" stroke="white" stroke-width="0.642682"/>
<rect x="-0.321341" y="0.321341" width="61.0548" height="61.0548" transform="matrix(-1 0 0 1 837.301 134.487)" stroke="white" stroke-width="0.642682"/>
<rect x="-0.321341" y="0.321341" width="61.0548" height="61.0548" transform="matrix(-1 0 0 1 776.246 134.487)" stroke="white" stroke-width="0.642682"/>
<rect x="-0.321341" y="0.321341" width="61.0548" height="61.0548" transform="matrix(-1 0 0 1 715.191 134.487)" stroke="white" stroke-width="0.642682"/>
<rect x="-0.321341" y="0.321341" width="61.0548" height="61.0548" transform="matrix(-1 0 0 1 654.137 134.487)" stroke="white" stroke-width="0.642682"/>
<rect x="-0.321341" y="0.321341" width="61.0548" height="61.0548" transform="matrix(-1 0 0 1 593.082 134.487)" stroke="white" stroke-width="0.642682"/>
<rect x="-0.321341" y="0.321341" width="61.0548" height="61.0548" transform="matrix(-1 0 0 1 1386.79 196.185)" stroke="white" stroke-width="0.642682"/>
<rect x="-0.321341" y="0.321341" width="61.0548" height="61.0548" transform="matrix(-1 0 0 1 1325.74 196.185)" stroke="white" stroke-width="0.642682"/>
<rect x="-0.321341" y="0.321341" width="61.0548" height="61.0548" transform="matrix(-1 0 0 1 1264.68 196.185)" stroke="white" stroke-width="0.642682"/>
<rect x="-0.321341" y="0.321341" width="61.0548" height="61.0548" transform="matrix(-1 0 0 1 1203.63 196.185)" stroke="white" stroke-width="0.642682"/>
<rect x="-0.321341" y="0.321341" width="61.0548" height="61.0548" transform="matrix(-1 0 0 1 1142.57 196.185)" stroke="white" stroke-width="0.642682"/>
<rect x="-0.321341" y="0.321341" width="61.0548" height="61.0548" transform="matrix(-1 0 0 1 1081.52 196.185)" stroke="white" stroke-width="0.642682"/>
<rect width="61.6975" height="61.6975" transform="matrix(-1 0 0 1 1021.11 196.185)" fill="white"/>
<rect x="-0.321341" y="0.321341" width="61.0548" height="61.0548" transform="matrix(-1 0 0 1 959.41 196.185)" stroke="white" stroke-width="0.642682"/>
<rect x="-0.321341" y="0.321341" width="61.0548" height="61.0548" transform="matrix(-1 0 0 1 898.355 196.185)" stroke="white" stroke-width="0.642682"/>
<rect x="-0.321341" y="0.321341" width="61.0548" height="61.0548" transform="matrix(-1 0 0 1 837.301 196.185)" stroke="white" stroke-width="0.642682"/>
<rect x="-0.321341" y="0.321341" width="61.0548" height="61.0548" transform="matrix(-1 0 0 1 776.246 196.185)" stroke="white" stroke-width="0.642682"/>
<rect x="-0.321341" y="0.321341" width="61.0548" height="61.0548" transform="matrix(-1 0 0 1 715.191 196.185)" stroke="white" stroke-width="0.642682"/>
<rect x="-0.321341" y="0.321341" width="61.0548" height="61.0548" transform="matrix(-1 0 0 1 654.137 196.185)" stroke="white" stroke-width="0.642682"/>
<rect x="-0.321341" y="0.321341" width="61.0548" height="61.0548" transform="matrix(-1 0 0 1 593.082 196.185)" stroke="white" stroke-width="0.642682"/>
<rect x="-0.321341" y="0.321341" width="61.0548" height="61.0548" transform="matrix(-1 0 0 1 1386.79 257.882)" stroke="white" stroke-width="0.642682"/>
<rect x="-0.321341" y="0.321341" width="61.0548" height="61.0548" transform="matrix(-1 0 0 1 1325.74 257.882)" stroke="white" stroke-width="0.642682"/>
<rect x="-0.321341" y="0.321341" width="61.0548" height="61.0548" transform="matrix(-1 0 0 1 1264.68 257.882)" stroke="white" stroke-width="0.642682"/>
<rect x="-0.321341" y="0.321341" width="61.0548" height="61.0548" transform="matrix(-1 0 0 1 1203.63 257.882)" stroke="white" stroke-width="0.642682"/>
<rect x="-0.321341" y="0.321341" width="61.0548" height="61.0548" transform="matrix(-1 0 0 1 1142.57 257.882)" stroke="white" stroke-width="0.642682"/>
<rect x="-0.321341" y="0.321341" width="61.0548" height="61.0548" transform="matrix(-1 0 0 1 1081.52 257.882)" stroke="white" stroke-width="0.642682"/>
<rect x="-0.321341" y="0.321341" width="61.0548" height="61.0548" transform="matrix(-1 0 0 1 1020.46 257.882)" stroke="white" stroke-width="0.642682"/>
<rect x="-0.321341" y="0.321341" width="61.0548" height="61.0548" transform="matrix(-1 0 0 1 959.41 257.882)" stroke="white" stroke-width="0.642682"/>
<rect x="-0.321341" y="0.321341" width="61.0548" height="61.0548" transform="matrix(-1 0 0 1 898.355 257.882)" stroke="white" stroke-width="0.642682"/>
<rect x="-0.321341" y="0.321341" width="61.0548" height="61.0548" transform="matrix(-1 0 0 1 837.301 257.882)" stroke="white" stroke-width="0.642682"/>
<rect x="-0.321341" y="0.321341" width="61.0548" height="61.0548" transform="matrix(-1 0 0 1 776.246 257.882)" stroke="white" stroke-width="0.642682"/>
<rect x="-0.321341" y="0.321341" width="61.0548" height="61.0548" transform="matrix(-1 0 0 1 715.191 257.882)" stroke="white" stroke-width="0.642682"/>
<rect x="-0.321341" y="0.321341" width="61.0548" height="61.0548" transform="matrix(-1 0 0 1 654.137 257.882)" stroke="white" stroke-width="0.642682"/>
<rect x="-0.321341" y="0.321341" width="61.0548" height="61.0548" transform="matrix(-1 0 0 1 593.082 257.882)" stroke="white" stroke-width="0.642682"/>
<rect x="-0.321341" y="0.321341" width="61.0548" height="61.0548" transform="matrix(-1 0 0 1 1386.79 319.58)" stroke="white" stroke-width="0.642682"/>
<rect x="-0.321341" y="0.321341" width="61.0548" height="61.0548" transform="matrix(-1 0 0 1 1325.74 319.58)" stroke="white" stroke-width="0.642682"/>
<rect x="-0.321341" y="0.321341" width="61.0548" height="61.0548" transform="matrix(-1 0 0 1 1264.68 319.58)" stroke="white" stroke-width="0.642682"/>
<rect x="-0.321341" y="0.321341" width="61.0548" height="61.0548" transform="matrix(-1 0 0 1 1203.63 319.58)" stroke="white" stroke-width="0.642682"/>
<rect x="-0.321341" y="0.321341" width="61.0548" height="61.0548" transform="matrix(-1 0 0 1 1142.57 319.58)" stroke="white" stroke-width="0.642682"/>
<rect width="61.6975" height="61.6975" transform="matrix(-1 0 0 1 1082.16 319.58)" fill="white"/>
<rect x="-0.321341" y="0.321341" width="61.0548" height="61.0548" transform="matrix(-1 0 0 1 1020.46 319.58)" stroke="white" stroke-width="0.642682"/>
<rect x="-0.321341" y="0.321341" width="61.0548" height="61.0548" transform="matrix(-1 0 0 1 959.41 319.58)" stroke="white" stroke-width="0.642682"/>
<rect x="-0.321341" y="0.321341" width="61.0548" height="61.0548" transform="matrix(-1 0 0 1 898.355 319.58)" stroke="white" stroke-width="0.642682"/>
<rect x="-0.321341" y="0.321341" width="61.0548" height="61.0548" transform="matrix(-1 0 0 1 837.301 319.58)" stroke="white" stroke-width="0.642682"/>
<rect x="-0.321341" y="0.321341" width="61.0548" height="61.0548" transform="matrix(-1 0 0 1 776.246 319.58)" stroke="white" stroke-width="0.642682"/>
<rect x="-0.321341" y="0.321341" width="61.0548" height="61.0548" transform="matrix(-1 0 0 1 715.191 319.58)" stroke="white" stroke-width="0.642682"/>
<rect x="-0.321341" y="0.321341" width="61.0548" height="61.0548" transform="matrix(-1 0 0 1 654.137 319.58)" stroke="white" stroke-width="0.642682"/>
<rect x="-0.321341" y="0.321341" width="61.0548" height="61.0548" transform="matrix(-1 0 0 1 593.082 319.58)" stroke="white" stroke-width="0.642682"/>
<rect x="-0.321341" y="0.321341" width="61.0548" height="61.0548" transform="matrix(-1 0 0 1 1386.79 381.277)" stroke="white" stroke-width="0.642682"/>
<rect x="-0.321341" y="0.321341" width="61.0548" height="61.0548" transform="matrix(-1 0 0 1 1325.74 381.277)" stroke="white" stroke-width="0.642682"/>
<rect x="-0.321341" y="0.321341" width="61.0548" height="61.0548" transform="matrix(-1 0 0 1 1264.68 381.277)" stroke="white" stroke-width="0.642682"/>
<rect x="-0.321341" y="0.321341" width="61.0548" height="61.0548" transform="matrix(-1 0 0 1 1203.63 381.277)" stroke="white" stroke-width="0.642682"/>
<rect width="61.6975" height="61.6975" transform="matrix(-1 0 0 1 1143.22 381.277)" fill="white"/>
<rect x="-0.321341" y="0.321341" width="61.0548" height="61.0548" transform="matrix(-1 0 0 1 1081.52 381.277)" stroke="white" stroke-width="0.642682"/>
<rect width="61.6975" height="61.6975" transform="matrix(-1 0 0 1 1021.11 381.277)" fill="white"/>
<rect x="-0.321341" y="0.321341" width="61.0548" height="61.0548" transform="matrix(-1 0 0 1 959.41 381.277)" stroke="white" stroke-width="0.642682"/>
<rect width="61.6975" height="61.6975" transform="matrix(-1 0 0 1 898.998 381.277)" fill="white"/>
<rect x="-0.321341" y="0.321341" width="61.0548" height="61.0548" transform="matrix(-1 0 0 1 837.301 381.277)" stroke="white" stroke-width="0.642682"/>
<rect x="-0.321341" y="0.321341" width="61.0548" height="61.0548" transform="matrix(-1 0 0 1 776.246 381.277)" stroke="white" stroke-width="0.642682"/>
<rect x="-0.321341" y="0.321341" width="61.0548" height="61.0548" transform="matrix(-1 0 0 1 715.191 381.277)" stroke="white" stroke-width="0.642682"/>
<rect x="-0.321341" y="0.321341" width="61.0548" height="61.0548" transform="matrix(-1 0 0 1 654.137 381.277)" stroke="white" stroke-width="0.642682"/>
<rect x="-0.321341" y="0.321341" width="61.0548" height="61.0548" transform="matrix(-1 0 0 1 593.082 381.277)" stroke="white" stroke-width="0.642682"/>
<rect x="-0.321341" y="0.321341" width="61.0548" height="61.0548" transform="matrix(-1 0 0 1 1386.79 442.975)" stroke="white" stroke-width="0.642682"/>
<rect x="-0.321341" y="0.321341" width="61.0548" height="61.0548" transform="matrix(-1 0 0 1 1325.74 442.975)" stroke="white" stroke-width="0.642682"/>
<rect x="-0.321341" y="0.321341" width="61.0548" height="61.0548" transform="matrix(-1 0 0 1 1264.68 442.975)" stroke="white" stroke-width="0.642682"/>
<rect width="61.6975" height="61.6975" transform="matrix(-1 0 0 1 1204.27 442.975)" fill="white"/>
<rect x="-0.321341" y="0.321341" width="61.0548" height="61.0548" transform="matrix(-1 0 0 1 1142.57 442.975)" stroke="white" stroke-width="0.642682"/>
<rect width="61.6975" height="61.6975" transform="matrix(-1 0 0 1 1082.16 442.975)" fill="white"/>
<rect x="-0.321341" y="0.321341" width="61.0548" height="61.0548" transform="matrix(-1 0 0 1 1020.46 442.975)" stroke="white" stroke-width="0.642682"/>
<rect width="61.6975" height="61.6975" transform="matrix(-1 0 0 1 960.053 442.975)" fill="white"/>
<rect x="-0.321341" y="0.321341" width="61.0548" height="61.0548" transform="matrix(-1 0 0 1 898.355 442.975)" stroke="white" stroke-width="0.642682"/>
<rect x="-0.321341" y="0.321341" width="61.0548" height="61.0548" transform="matrix(-1 0 0 1 837.301 442.975)" stroke="white" stroke-width="0.642682"/>
<rect x="-0.321341" y="0.321341" width="61.0548" height="61.0548" transform="matrix(-1 0 0 1 776.246 442.975)" stroke="white" stroke-width="0.642682"/>
<rect x="-0.321341" y="0.321341" width="61.0548" height="61.0548" transform="matrix(-1 0 0 1 715.191 442.975)" stroke="white" stroke-width="0.642682"/>
<rect x="-0.321341" y="0.321341" width="61.0548" height="61.0548" transform="matrix(-1 0 0 1 654.137 442.975)" stroke="white" stroke-width="0.642682"/>
<rect x="-0.321341" y="0.321341" width="61.0548" height="61.0548" transform="matrix(-1 0 0 1 593.082 442.975)" stroke="white" stroke-width="0.642682"/>
<rect x="-0.321341" y="0.321341" width="61.0548" height="61.0548" transform="matrix(-1 0 0 1 1386.79 504.672)" stroke="white" stroke-width="0.642682"/>
<rect x="-0.321341" y="0.321341" width="61.0548" height="61.0548" transform="matrix(-1 0 0 1 1325.74 504.672)" stroke="white" stroke-width="0.642682"/>
<rect x="-0.321341" y="0.321341" width="61.0548" height="61.0548" transform="matrix(-1 0 0 1 1264.68 504.672)" stroke="white" stroke-width="0.642682"/>
<rect x="-0.321341" y="0.321341" width="61.0548" height="61.0548" transform="matrix(-1 0 0 1 1203.63 504.672)" stroke="white" stroke-width="0.642682"/>
<rect width="61.6975" height="61.6975" transform="matrix(-1 0 0 1 1143.22 504.672)" fill="white"/>
<rect x="-0.321341" y="0.321341" width="61.0548" height="61.0548" transform="matrix(-1 0 0 1 1081.52 504.672)" stroke="white" stroke-width="0.642682"/>
<rect width="61.6975" height="61.6975" transform="matrix(-1 0 0 1 1021.11 504.672)" fill="white"/>
<rect x="-0.321341" y="0.321341" width="61.0548" height="61.0548" transform="matrix(-1 0 0 1 959.41 504.672)" stroke="white" stroke-width="0.642682"/>
<rect x="-0.321341" y="0.321341" width="61.0548" height="61.0548" transform="matrix(-1 0 0 1 898.355 504.672)" stroke="white" stroke-width="0.642682"/>
<rect x="-0.321341" y="0.321341" width="61.0548" height="61.0548" transform="matrix(-1 0 0 1 837.301 504.672)" stroke="white" stroke-width="0.642682"/>
<rect x="-0.321341" y="0.321341" width="61.0548" height="61.0548" transform="matrix(-1 0 0 1 776.246 504.672)" stroke="white" stroke-width="0.642682"/>
<rect x="-0.321341" y="0.321341" width="61.0548" height="61.0548" transform="matrix(-1 0 0 1 715.191 504.672)" stroke="white" stroke-width="0.642682"/>
<rect x="-0.321341" y="0.321341" width="61.0548" height="61.0548" transform="matrix(-1 0 0 1 654.137 504.672)" stroke="white" stroke-width="0.642682"/>
<rect x="-0.321341" y="0.321341" width="61.0548" height="61.0548" transform="matrix(-1 0 0 1 593.082 504.672)" stroke="white" stroke-width="0.642682"/>
<rect x="-0.321341" y="0.321341" width="61.0548" height="61.0548" transform="matrix(-1 0 0 1 1386.79 566.369)" stroke="white" stroke-width="0.642682"/>
<rect x="-0.321341" y="0.321341" width="61.0548" height="61.0548" transform="matrix(-1 0 0 1 1325.74 566.369)" stroke="white" stroke-width="0.642682"/>
<rect x="-0.321341" y="0.321341" width="61.0548" height="61.0548" transform="matrix(-1 0 0 1 1264.68 566.369)" stroke="white" stroke-width="0.642682"/>
<rect x="-0.321341" y="0.321341" width="61.0548" height="61.0548" transform="matrix(-1 0 0 1 1203.63 566.369)" stroke="white" stroke-width="0.642682"/>
<rect x="-0.321341" y="0.321341" width="61.0548" height="61.0548" transform="matrix(-1 0 0 1 1142.57 566.369)" stroke="white" stroke-width="0.642682"/>
<rect x="-0.321341" y="0.321341" width="61.0548" height="61.0548" transform="matrix(-1 0 0 1 1081.52 566.369)" stroke="white" stroke-width="0.642682"/>
<rect x="-0.321341" y="0.321341" width="61.0548" height="61.0548" transform="matrix(-1 0 0 1 1020.46 566.369)" stroke="white" stroke-width="0.642682"/>
<rect x="-0.321341" y="0.321341" width="61.0548" height="61.0548" transform="matrix(-1 0 0 1 959.41 566.369)" stroke="white" stroke-width="0.642682"/>
<rect x="-0.321341" y="0.321341" width="61.0548" height="61.0548" transform="matrix(-1 0 0 1 898.355 566.369)" stroke="white" stroke-width="0.642682"/>
<rect x="-0.321341" y="0.321341" width="61.0548" height="61.0548" transform="matrix(-1 0 0 1 837.301 566.369)" stroke="white" stroke-width="0.642682"/>
<rect x="-0.321341" y="0.321341" width="61.0548" height="61.0548" transform="matrix(-1 0 0 1 776.246 566.369)" stroke="white" stroke-width="0.642682"/>
<rect x="-0.321341" y="0.321341" width="61.0548" height="61.0548" transform="matrix(-1 0 0 1 715.191 566.369)" stroke="white" stroke-width="0.642682"/>
<rect x="-0.321341" y="0.321341" width="61.0548" height="61.0548" transform="matrix(-1 0 0 1 654.137 566.369)" stroke="white" stroke-width="0.642682"/>
<rect x="-0.321341" y="0.321341" width="61.0548" height="61.0548" transform="matrix(-1 0 0 1 593.082 566.369)" stroke="white" stroke-width="0.642682"/>
<rect x="-0.321341" y="0.321341" width="61.0548" height="61.0548" transform="matrix(-1 0 0 1 1386.79 628.067)" stroke="white" stroke-width="0.642682"/>
<rect x="-0.321341" y="0.321341" width="61.0548" height="61.0548" transform="matrix(-1 0 0 1 1325.74 628.067)" stroke="white" stroke-width="0.642682"/>
<rect x="-0.321341" y="0.321341" width="61.0548" height="61.0548" transform="matrix(-1 0 0 1 1264.68 628.067)" stroke="white" stroke-width="0.642682"/>
<rect x="-0.321341" y="0.321341" width="61.0548" height="61.0548" transform="matrix(-1 0 0 1 1203.63 628.067)" stroke="white" stroke-width="0.642682"/>
<rect x="-0.321341" y="0.321341" width="61.0548" height="61.0548" transform="matrix(-1 0 0 1 1142.57 628.067)" stroke="white" stroke-width="0.642682"/>
<rect x="-0.321341" y="0.321341" width="61.0548" height="61.0548" transform="matrix(-1 0 0 1 1081.52 628.067)" stroke="white" stroke-width="0.642682"/>
<rect x="-0.321341" y="0.321341" width="61.0548" height="61.0548" transform="matrix(-1 0 0 1 1020.46 628.067)" stroke="white" stroke-width="0.642682"/>
<rect x="-0.321341" y="0.321341" width="61.0548" height="61.0548" transform="matrix(-1 0 0 1 959.41 628.067)" stroke="white" stroke-width="0.642682"/>
<rect x="-0.321341" y="0.321341" width="61.0548" height="61.0548" transform="matrix(-1 0 0 1 898.355 628.067)" stroke="white" stroke-width="0.642682"/>
<rect x="-0.321341" y="0.321341" width="61.0548" height="61.0548" transform="matrix(-1 0 0 1 837.301 628.067)" stroke="white" stroke-width="0.642682"/>
<rect x="-0.321341" y="0.321341" width="61.0548" height="61.0548" transform="matrix(-1 0 0 1 776.246 628.067)" stroke="white" stroke-width="0.642682"/>
<rect x="-0.321341" y="0.321341" width="61.0548" height="61.0548" transform="matrix(-1 0 0 1 715.191 628.067)" stroke="white" stroke-width="0.642682"/>
<rect x="-0.321341" y="0.321341" width="61.0548" height="61.0548" transform="matrix(-1 0 0 1 654.137 628.067)" stroke="white" stroke-width="0.642682"/>
<rect x="-0.321341" y="0.321341" width="61.0548" height="61.0548" transform="matrix(-1 0 0 1 593.082 628.067)" stroke="white" stroke-width="0.642682"/>
</g>
</mask>
<g mask="url(#mask1_10406_66584)">
<g filter="url(#filter2_f_10406_66584)">
<ellipse cx="432.838" cy="230.712" rx="432.838" ry="230.712" transform="matrix(-0.982365 -0.186971 -0.35295 0.935642 685.252 -72.125)" fill="#FCFCFC"/>
</g>
<g filter="url(#filter3_f_10406_66584)">
<ellipse cx="349.748" cy="186.424" rx="349.748" ry="186.424" transform="matrix(-0.982365 -0.186971 -0.35295 0.935642 1362.63 29.3379)" fill="#9BA7FF"/>
</g>
</g>
</g>
<defs>
<filter id="filter0_f_10406_66584" x="288.655" y="-271.503" width="1073.45" height="668.628" filterUnits="userSpaceOnUse" color-interpolation-filters="sRGB">
<feFlood flood-opacity="0" result="BackgroundImageFix"/>
<feBlend mode="normal" in="SourceGraphic" in2="BackgroundImageFix" result="shape"/>
<feGaussianBlur stdDeviation="51.8578" result="effect1_foregroundBlur_10406_66584"/>
</filter>
<filter id="filter1_f_10406_66584" x="-106.097" y="-91.1887" width="749.106" height="506.044" filterUnits="userSpaceOnUse" color-interpolation-filters="sRGB">
<feFlood flood-opacity="0" result="BackgroundImageFix"/>
<feBlend mode="normal" in="SourceGraphic" in2="BackgroundImageFix" result="shape"/>
<feGaussianBlur stdDeviation="41.903" result="effect1_foregroundBlur_10406_66584"/>
</filter>
<filter id="filter2_f_10406_66584" x="-358.11" y="-271.503" width="1073.45" height="668.628" filterUnits="userSpaceOnUse" color-interpolation-filters="sRGB">
<feFlood flood-opacity="0" result="BackgroundImageFix"/>
<feBlend mode="normal" in="SourceGraphic" in2="BackgroundImageFix" result="shape"/>
<feGaussianBlur stdDeviation="51.8578" result="effect1_foregroundBlur_10406_66584"/>
</filter>
<filter id="filter3_f_10406_66584" x="519.555" y="-131.766" width="867.389" height="540.274" filterUnits="userSpaceOnUse" color-interpolation-filters="sRGB">
<feFlood flood-opacity="0" result="BackgroundImageFix"/>
<feBlend mode="normal" in="SourceGraphic" in2="BackgroundImageFix" result="shape"/>
<feGaussianBlur stdDeviation="41.903" result="effect1_foregroundBlur_10406_66584"/>
</filter>
</defs>
</svg>
