<svg width="1513" height="700" viewBox="0 0 1513 700" fill="none" xmlns="http://www.w3.org/2000/svg">
<g opacity="0.5">
<mask id="mask0_28674_28693" style="mask-type:luminance" maskUnits="userSpaceOnUse" x="-496" y="-174" width="1223" height="864">
<g opacity="0.12">
<rect x="-6.50532" y="-50.2836" width="61.0548" height="61.0548" stroke="white" stroke-width="0.642682"/>
<rect x="54.5494" y="-50.2836" width="61.0548" height="61.0548" stroke="white" stroke-width="0.642682"/>
<rect x="115.604" y="-50.2836" width="61.0548" height="61.0548" stroke="white" stroke-width="0.642682"/>
<rect x="176.659" y="-50.2836" width="61.0548" height="61.0548" stroke="white" stroke-width="0.642682"/>
<rect x="237.713" y="-50.2836" width="61.0548" height="61.0548" stroke="white" stroke-width="0.642682"/>
<rect x="298.768" y="-50.2836" width="61.0548" height="61.0548" stroke="white" stroke-width="0.642682"/>
<rect x="359.823" y="-50.2836" width="61.0548" height="61.0548" stroke="white" stroke-width="0.642682"/>
<rect x="420.877" y="-50.2836" width="61.0548" height="61.0548" stroke="white" stroke-width="0.642682"/>
<rect x="481.932" y="-50.2836" width="61.0548" height="61.0548" stroke="white" stroke-width="0.642682"/>
<rect x="542.987" y="-50.2836" width="61.0548" height="61.0548" stroke="white" stroke-width="0.642682"/>
<rect x="604.042" y="-50.2836" width="61.0548" height="61.0548" stroke="white" stroke-width="0.642682"/>
<rect x="665.096" y="-50.2836" width="61.0548" height="61.0548" stroke="white" stroke-width="0.642682"/>
<rect x="-6.50532" y="11.4136" width="61.0548" height="61.0548" stroke="white" stroke-width="0.642682"/>
<rect x="54.5494" y="11.4136" width="61.0548" height="61.0548" stroke="white" stroke-width="0.642682"/>
<rect x="115.604" y="11.4136" width="61.0548" height="61.0548" stroke="white" stroke-width="0.642682"/>
<rect x="176.659" y="11.4136" width="61.0548" height="61.0548" stroke="white" stroke-width="0.642682"/>
<rect x="237.713" y="11.4136" width="61.0548" height="61.0548" stroke="white" stroke-width="0.642682"/>
<rect x="298.768" y="11.4136" width="61.0548" height="61.0548" stroke="white" stroke-width="0.642682"/>
<rect x="359.823" y="11.4136" width="61.0548" height="61.0548" stroke="white" stroke-width="0.642682"/>
<rect x="420.877" y="11.4136" width="61.0548" height="61.0548" stroke="white" stroke-width="0.642682"/>
<rect x="481.932" y="11.4136" width="61.0548" height="61.0548" stroke="white" stroke-width="0.642682"/>
<rect x="542.987" y="11.4136" width="61.0548" height="61.0548" stroke="white" stroke-width="0.642682"/>
<rect x="604.042" y="11.4136" width="61.0548" height="61.0548" stroke="white" stroke-width="0.642682"/>
<rect x="665.096" y="11.4136" width="61.0548" height="61.0548" stroke="white" stroke-width="0.642682"/>
<rect x="-6.50532" y="73.1114" width="61.0548" height="61.0548" stroke="white" stroke-width="0.642682"/>
<rect x="54.5494" y="73.1114" width="61.0548" height="61.0548" stroke="white" stroke-width="0.642682"/>
<rect x="115.604" y="73.1114" width="61.0548" height="61.0548" stroke="white" stroke-width="0.642682"/>
<rect x="176.659" y="73.1114" width="61.0548" height="61.0548" stroke="white" stroke-width="0.642682"/>
<rect x="237.392" y="72.79" width="61.6975" height="61.6975" fill="white"/>
<rect x="298.768" y="73.1114" width="61.0548" height="61.0548" stroke="white" stroke-width="0.642682"/>
<rect x="359.501" y="72.79" width="61.6975" height="61.6975" fill="white"/>
<rect x="420.877" y="73.1114" width="61.0548" height="61.0548" stroke="white" stroke-width="0.642682"/>
<rect x="481.932" y="73.1114" width="61.0548" height="61.0548" stroke="white" stroke-width="0.642682"/>
<rect x="542.987" y="73.1114" width="61.0548" height="61.0548" stroke="white" stroke-width="0.642682"/>
<rect x="604.042" y="73.1114" width="61.0548" height="61.0548" stroke="white" stroke-width="0.642682"/>
<rect x="665.096" y="73.1114" width="61.0548" height="61.0548" stroke="white" stroke-width="0.642682"/>
<rect x="-6.50532" y="134.809" width="61.0548" height="61.0548" stroke="white" stroke-width="0.642682"/>
<rect x="54.5494" y="134.809" width="61.0548" height="61.0548" stroke="white" stroke-width="0.642682"/>
<rect x="115.604" y="134.809" width="61.0548" height="61.0548" stroke="white" stroke-width="0.642682"/>
<rect x="176.659" y="134.809" width="61.0548" height="61.0548" stroke="white" stroke-width="0.642682"/>
<rect x="237.713" y="134.809" width="61.0548" height="61.0548" stroke="white" stroke-width="0.642682"/>
<rect x="298.768" y="134.809" width="61.0548" height="61.0548" stroke="white" stroke-width="0.642682"/>
<rect x="359.823" y="134.809" width="61.0548" height="61.0548" stroke="white" stroke-width="0.642682"/>
<rect x="420.877" y="134.809" width="61.0548" height="61.0548" stroke="white" stroke-width="0.642682"/>
<rect x="481.932" y="134.809" width="61.0548" height="61.0548" stroke="white" stroke-width="0.642682"/>
<rect x="542.987" y="134.809" width="61.0548" height="61.0548" stroke="white" stroke-width="0.642682"/>
<rect x="604.042" y="134.809" width="61.0548" height="61.0548" stroke="white" stroke-width="0.642682"/>
<rect x="665.096" y="134.809" width="61.0548" height="61.0548" stroke="white" stroke-width="0.642682"/>
<rect x="-6.50532" y="196.506" width="61.0548" height="61.0548" stroke="white" stroke-width="0.642682"/>
<rect x="54.5494" y="196.506" width="61.0548" height="61.0548" stroke="white" stroke-width="0.642682"/>
<rect x="115.604" y="196.506" width="61.0548" height="61.0548" stroke="white" stroke-width="0.642682"/>
<rect x="176.337" y="196.185" width="61.6975" height="61.6975" fill="white"/>
<rect x="237.713" y="196.506" width="61.0548" height="61.0548" stroke="white" stroke-width="0.642682"/>
<rect x="298.768" y="196.506" width="61.0548" height="61.0548" stroke="white" stroke-width="0.642682"/>
<rect x="359.823" y="196.506" width="61.0548" height="61.0548" stroke="white" stroke-width="0.642682"/>
<rect x="420.877" y="196.506" width="61.0548" height="61.0548" stroke="white" stroke-width="0.642682"/>
<rect x="481.932" y="196.506" width="61.0548" height="61.0548" stroke="white" stroke-width="0.642682"/>
<rect x="542.987" y="196.506" width="61.0548" height="61.0548" stroke="white" stroke-width="0.642682"/>
<rect x="604.042" y="196.506" width="61.0548" height="61.0548" stroke="white" stroke-width="0.642682"/>
<rect x="665.096" y="196.506" width="61.0548" height="61.0548" stroke="white" stroke-width="0.642682"/>
<rect x="-6.50532" y="258.204" width="61.0548" height="61.0548" stroke="white" stroke-width="0.642682"/>
<rect x="54.5494" y="258.204" width="61.0548" height="61.0548" stroke="white" stroke-width="0.642682"/>
<rect x="115.283" y="257.882" width="61.6975" height="61.6975" fill="white"/>
<rect x="176.659" y="258.204" width="61.0548" height="61.0548" stroke="white" stroke-width="0.642682"/>
<rect x="237.392" y="257.882" width="61.6975" height="61.6975" fill="white"/>
<rect x="298.768" y="258.204" width="61.0548" height="61.0548" stroke="white" stroke-width="0.642682"/>
<rect x="359.501" y="257.882" width="61.6975" height="61.6975" fill="white"/>
<rect x="420.877" y="258.204" width="61.0548" height="61.0548" stroke="white" stroke-width="0.642682"/>
<rect x="481.932" y="258.204" width="61.0548" height="61.0548" stroke="white" stroke-width="0.642682"/>
<rect x="542.987" y="258.204" width="61.0548" height="61.0548" stroke="white" stroke-width="0.642682"/>
<rect x="604.042" y="258.204" width="61.0548" height="61.0548" stroke="white" stroke-width="0.642682"/>
<rect x="665.096" y="258.204" width="61.0548" height="61.0548" stroke="white" stroke-width="0.642682"/>
<rect x="-6.50532" y="319.901" width="61.0548" height="61.0548" stroke="white" stroke-width="0.642682"/>
<rect x="54.228" y="319.58" width="61.6975" height="61.6975" fill="white"/>
<rect x="115.604" y="319.901" width="61.0548" height="61.0548" stroke="white" stroke-width="0.642682"/>
<rect x="176.337" y="319.58" width="61.6975" height="61.6975" fill="white"/>
<rect x="237.713" y="319.901" width="61.0548" height="61.0548" stroke="white" stroke-width="0.642682"/>
<rect x="298.447" y="319.58" width="61.6975" height="61.6975" fill="white"/>
<rect x="359.823" y="319.901" width="61.0548" height="61.0548" stroke="white" stroke-width="0.642682"/>
<rect x="420.877" y="319.901" width="61.0548" height="61.0548" stroke="white" stroke-width="0.642682"/>
<rect x="481.932" y="319.901" width="61.0548" height="61.0548" stroke="white" stroke-width="0.642682"/>
<rect x="542.987" y="319.901" width="61.0548" height="61.0548" stroke="white" stroke-width="0.642682"/>
<rect x="604.042" y="319.901" width="61.0548" height="61.0548" stroke="white" stroke-width="0.642682"/>
<rect x="665.096" y="319.901" width="61.0548" height="61.0548" stroke="white" stroke-width="0.642682"/>
<rect x="-6.50532" y="381.599" width="61.0548" height="61.0548" stroke="white" stroke-width="0.642682"/>
<rect x="54.5494" y="381.599" width="61.0548" height="61.0548" stroke="white" stroke-width="0.642682"/>
<rect x="115.283" y="381.277" width="61.6975" height="61.6975" fill="white"/>
<rect x="176.659" y="381.599" width="61.0548" height="61.0548" stroke="white" stroke-width="0.642682"/>
<rect x="237.392" y="381.277" width="61.6975" height="61.6975" fill="white"/>
<rect x="298.768" y="381.599" width="61.0548" height="61.0548" stroke="white" stroke-width="0.642682"/>
<rect x="359.823" y="381.599" width="61.0548" height="61.0548" stroke="white" stroke-width="0.642682"/>
<rect x="420.877" y="381.599" width="61.0548" height="61.0548" stroke="white" stroke-width="0.642682"/>
<rect x="481.932" y="381.599" width="61.0548" height="61.0548" stroke="white" stroke-width="0.642682"/>
<rect x="542.987" y="381.599" width="61.0548" height="61.0548" stroke="white" stroke-width="0.642682"/>
<rect x="604.042" y="381.599" width="61.0548" height="61.0548" stroke="white" stroke-width="0.642682"/>
<rect x="665.096" y="381.599" width="61.0548" height="61.0548" stroke="white" stroke-width="0.642682"/>
<rect x="-6.50532" y="443.296" width="61.0548" height="61.0548" stroke="white" stroke-width="0.642682"/>
<rect x="54.5494" y="443.296" width="61.0548" height="61.0548" stroke="white" stroke-width="0.642682"/>
<rect x="115.604" y="443.296" width="61.0548" height="61.0548" stroke="white" stroke-width="0.642682"/>
<rect x="176.659" y="443.296" width="61.0548" height="61.0548" stroke="white" stroke-width="0.642682"/>
<rect x="237.713" y="443.296" width="61.0548" height="61.0548" stroke="white" stroke-width="0.642682"/>
<rect x="298.768" y="443.296" width="61.0548" height="61.0548" stroke="white" stroke-width="0.642682"/>
<rect x="359.823" y="443.296" width="61.0548" height="61.0548" stroke="white" stroke-width="0.642682"/>
<rect x="420.877" y="443.296" width="61.0548" height="61.0548" stroke="white" stroke-width="0.642682"/>
<rect x="481.932" y="443.296" width="61.0548" height="61.0548" stroke="white" stroke-width="0.642682"/>
<rect x="542.987" y="443.296" width="61.0548" height="61.0548" stroke="white" stroke-width="0.642682"/>
<rect x="604.042" y="443.296" width="61.0548" height="61.0548" stroke="white" stroke-width="0.642682"/>
<rect x="665.096" y="443.296" width="61.0548" height="61.0548" stroke="white" stroke-width="0.642682"/>
<rect x="-6.50532" y="504.993" width="61.0548" height="61.0548" stroke="white" stroke-width="0.642682"/>
<rect x="54.5494" y="504.993" width="61.0548" height="61.0548" stroke="white" stroke-width="0.642682"/>
<rect x="115.604" y="504.993" width="61.0548" height="61.0548" stroke="white" stroke-width="0.642682"/>
<rect x="176.659" y="504.993" width="61.0548" height="61.0548" stroke="white" stroke-width="0.642682"/>
<rect x="237.713" y="504.993" width="61.0548" height="61.0548" stroke="white" stroke-width="0.642682"/>
<rect x="298.768" y="504.993" width="61.0548" height="61.0548" stroke="white" stroke-width="0.642682"/>
<rect x="359.823" y="504.993" width="61.0548" height="61.0548" stroke="white" stroke-width="0.642682"/>
<rect x="420.877" y="504.993" width="61.0548" height="61.0548" stroke="white" stroke-width="0.642682"/>
<rect x="481.932" y="504.993" width="61.0548" height="61.0548" stroke="white" stroke-width="0.642682"/>
<rect x="542.987" y="504.993" width="61.0548" height="61.0548" stroke="white" stroke-width="0.642682"/>
<rect x="604.042" y="504.993" width="61.0548" height="61.0548" stroke="white" stroke-width="0.642682"/>
<rect x="665.096" y="504.993" width="61.0548" height="61.0548" stroke="white" stroke-width="0.642682"/>
</g>
</mask>
<g mask="url(#mask0_28674_28693)">
<g filter="url(#filter0_f_28674_28693)">
<ellipse cx="432.838" cy="230.712" rx="432.838" ry="230.712" transform="matrix(0.982365 -0.186971 0.35295 0.935642 573.248 -72.125)" fill="#571FD0"/>
</g>
<g filter="url(#filter1_f_28674_28693)">
<ellipse cx="289.434" cy="171.306" rx="289.434" ry="171.306" transform="matrix(0.982365 -0.186971 0.35295 0.935642 178.164 55.668)" fill="#9BA7FF"/>
</g>
</g>
<mask id="mask1_28674_28693" style="mask-type:luminance" maskUnits="userSpaceOnUse" x="725" y="-174" width="1284" height="864">
<g opacity="0.12">
<rect x="-0.321341" y="0.321341" width="61.0548" height="61.0548" transform="matrix(-1 0 0 1 1519.18 -50.605)" stroke="white" stroke-width="0.642682"/>
<rect x="-0.321341" y="0.321341" width="61.0548" height="61.0548" transform="matrix(-1 0 0 1 1458.13 -50.605)" stroke="white" stroke-width="0.642682"/>
<rect x="-0.321341" y="0.321341" width="61.0548" height="61.0548" transform="matrix(-1 0 0 1 1397.07 -50.605)" stroke="white" stroke-width="0.642682"/>
<rect x="-0.321341" y="0.321341" width="61.0548" height="61.0548" transform="matrix(-1 0 0 1 1336.02 -50.605)" stroke="white" stroke-width="0.642682"/>
<rect x="-0.321341" y="0.321341" width="61.0548" height="61.0548" transform="matrix(-1 0 0 1 1274.96 -50.605)" stroke="white" stroke-width="0.642682"/>
<rect x="-0.321341" y="0.321341" width="61.0548" height="61.0548" transform="matrix(-1 0 0 1 1213.91 -50.605)" stroke="white" stroke-width="0.642682"/>
<rect x="-0.321341" y="0.321341" width="61.0548" height="61.0548" transform="matrix(-1 0 0 1 1152.86 -50.605)" stroke="white" stroke-width="0.642682"/>
<rect x="-0.321341" y="0.321341" width="61.0548" height="61.0548" transform="matrix(-1 0 0 1 1091.8 -50.605)" stroke="white" stroke-width="0.642682"/>
<rect x="-0.321341" y="0.321341" width="61.0548" height="61.0548" transform="matrix(-1 0 0 1 1030.75 -50.605)" stroke="white" stroke-width="0.642682"/>
<rect x="-0.321341" y="0.321341" width="61.0548" height="61.0548" transform="matrix(-1 0 0 1 969.691 -50.605)" stroke="white" stroke-width="0.642682"/>
<rect x="-0.321341" y="0.321341" width="61.0548" height="61.0548" transform="matrix(-1 0 0 1 908.637 -50.605)" stroke="white" stroke-width="0.642682"/>
<rect x="-0.321341" y="0.321341" width="61.0548" height="61.0548" transform="matrix(-1 0 0 1 847.582 -50.605)" stroke="white" stroke-width="0.642682"/>
<rect x="-0.321341" y="0.321341" width="61.0548" height="61.0548" transform="matrix(-1 0 0 1 1519.18 11.0923)" stroke="white" stroke-width="0.642682"/>
<rect x="-0.321341" y="0.321341" width="61.0548" height="61.0548" transform="matrix(-1 0 0 1 1458.13 11.0923)" stroke="white" stroke-width="0.642682"/>
<rect x="-0.321341" y="0.321341" width="61.0548" height="61.0548" transform="matrix(-1 0 0 1 1397.07 11.0923)" stroke="white" stroke-width="0.642682"/>
<rect x="-0.321341" y="0.321341" width="61.0548" height="61.0548" transform="matrix(-1 0 0 1 1336.02 11.0923)" stroke="white" stroke-width="0.642682"/>
<rect x="-0.321341" y="0.321341" width="61.0548" height="61.0548" transform="matrix(-1 0 0 1 1274.96 11.0923)" stroke="white" stroke-width="0.642682"/>
<rect x="-0.321341" y="0.321341" width="61.0548" height="61.0548" transform="matrix(-1 0 0 1 1213.91 11.0923)" stroke="white" stroke-width="0.642682"/>
<rect x="-0.321341" y="0.321341" width="61.0548" height="61.0548" transform="matrix(-1 0 0 1 1152.86 11.0923)" stroke="white" stroke-width="0.642682"/>
<rect x="-0.321341" y="0.321341" width="61.0548" height="61.0548" transform="matrix(-1 0 0 1 1091.8 11.0923)" stroke="white" stroke-width="0.642682"/>
<rect x="-0.321341" y="0.321341" width="61.0548" height="61.0548" transform="matrix(-1 0 0 1 1030.75 11.0923)" stroke="white" stroke-width="0.642682"/>
<rect x="-0.321341" y="0.321341" width="61.0548" height="61.0548" transform="matrix(-1 0 0 1 969.691 11.0923)" stroke="white" stroke-width="0.642682"/>
<rect x="-0.321341" y="0.321341" width="61.0548" height="61.0548" transform="matrix(-1 0 0 1 908.637 11.0923)" stroke="white" stroke-width="0.642682"/>
<rect x="-0.321341" y="0.321341" width="61.0548" height="61.0548" transform="matrix(-1 0 0 1 847.582 11.0923)" stroke="white" stroke-width="0.642682"/>
<rect x="-0.321341" y="0.321341" width="61.0548" height="61.0548" transform="matrix(-1 0 0 1 1519.18 72.79)" stroke="white" stroke-width="0.642682"/>
<rect x="-0.321341" y="0.321341" width="61.0548" height="61.0548" transform="matrix(-1 0 0 1 1458.13 72.79)" stroke="white" stroke-width="0.642682"/>
<rect x="-0.321341" y="0.321341" width="61.0548" height="61.0548" transform="matrix(-1 0 0 1 1397.07 72.79)" stroke="white" stroke-width="0.642682"/>
<rect x="-0.321341" y="0.321341" width="61.0548" height="61.0548" transform="matrix(-1 0 0 1 1336.02 72.79)" stroke="white" stroke-width="0.642682"/>
<rect x="-0.321341" y="0.321341" width="61.0548" height="61.0548" transform="matrix(-1 0 0 1 1274.96 72.79)" stroke="white" stroke-width="0.642682"/>
<rect x="-0.321341" y="0.321341" width="61.0548" height="61.0548" transform="matrix(-1 0 0 1 1152.86 72.79)" stroke="white" stroke-width="0.642682"/>
<rect width="61.6975" height="61.6975" transform="matrix(-1 0 0 1 1092.44 72.79)" fill="white"/>
<rect x="-0.321341" y="0.321341" width="61.0548" height="61.0548" transform="matrix(-1 0 0 1 1030.75 72.79)" stroke="white" stroke-width="0.642682"/>
<rect x="-0.321341" y="0.321341" width="61.0548" height="61.0548" transform="matrix(-1 0 0 1 969.691 72.79)" stroke="white" stroke-width="0.642682"/>
<rect x="-0.321341" y="0.321341" width="61.0548" height="61.0548" transform="matrix(-1 0 0 1 908.637 72.79)" stroke="white" stroke-width="0.642682"/>
<rect x="-0.321341" y="0.321341" width="61.0548" height="61.0548" transform="matrix(-1 0 0 1 847.582 72.79)" stroke="white" stroke-width="0.642682"/>
<rect x="-0.321341" y="0.321341" width="61.0548" height="61.0548" transform="matrix(-1 0 0 1 786.527 72.79)" stroke="white" stroke-width="0.642682"/>
<rect x="-0.321341" y="0.321341" width="61.0548" height="61.0548" transform="matrix(-1 0 0 1 1519.18 134.487)" stroke="white" stroke-width="0.642682"/>
<rect x="-0.321341" y="0.321341" width="61.0548" height="61.0548" transform="matrix(-1 0 0 1 1458.13 134.487)" stroke="white" stroke-width="0.642682"/>
<rect x="-0.321341" y="0.321341" width="61.0548" height="61.0548" transform="matrix(-1 0 0 1 1397.07 134.487)" stroke="white" stroke-width="0.642682"/>
<rect width="61.6975" height="61.6975" transform="matrix(-1 0 0 1 1336.66 134.487)" fill="white"/>
<rect x="-0.321341" y="0.321341" width="61.0548" height="61.0548" transform="matrix(-1 0 0 1 1274.96 134.487)" stroke="white" stroke-width="0.642682"/>
<rect x="-0.321341" y="0.321341" width="61.0548" height="61.0548" transform="matrix(-1 0 0 1 1152.86 134.487)" stroke="white" stroke-width="0.642682"/>
<rect x="-0.321341" y="0.321341" width="61.0548" height="61.0548" transform="matrix(-1 0 0 1 1091.8 134.487)" stroke="white" stroke-width="0.642682"/>
<rect x="-0.321341" y="0.321341" width="61.0548" height="61.0548" transform="matrix(-1 0 0 1 1030.75 134.487)" stroke="white" stroke-width="0.642682"/>
<rect x="-0.321341" y="0.321341" width="61.0548" height="61.0548" transform="matrix(-1 0 0 1 969.691 134.487)" stroke="white" stroke-width="0.642682"/>
<rect x="-0.321341" y="0.321341" width="61.0548" height="61.0548" transform="matrix(-1 0 0 1 908.637 134.487)" stroke="white" stroke-width="0.642682"/>
<rect x="-0.321341" y="0.321341" width="61.0548" height="61.0548" transform="matrix(-1 0 0 1 847.582 134.487)" stroke="white" stroke-width="0.642682"/>
<rect x="-0.321341" y="0.321341" width="61.0548" height="61.0548" transform="matrix(-1 0 0 1 1519.18 196.185)" stroke="white" stroke-width="0.642682"/>
<rect x="-0.321341" y="0.321341" width="61.0548" height="61.0548" transform="matrix(-1 0 0 1 1458.13 196.185)" stroke="white" stroke-width="0.642682"/>
<rect x="-0.321341" y="0.321341" width="61.0548" height="61.0548" transform="matrix(-1 0 0 1 1397.07 196.185)" stroke="white" stroke-width="0.642682"/>
<rect x="-0.321341" y="0.321341" width="61.0548" height="61.0548" transform="matrix(-1 0 0 1 1336.02 196.185)" stroke="white" stroke-width="0.642682"/>
<rect width="61.6975" height="61.6975" transform="matrix(-1 0 0 1 1275.61 196.185)" fill="white"/>
<rect x="-0.321341" y="0.321341" width="61.0548" height="61.0548" transform="matrix(-1 0 0 1 1213.91 196.185)" stroke="white" stroke-width="0.642682"/>
<rect x="-0.321341" y="0.321341" width="61.0548" height="61.0548" transform="matrix(-1 0 0 1 1152.86 196.185)" stroke="white" stroke-width="0.642682"/>
<rect x="-0.321341" y="0.321341" width="61.0548" height="61.0548" transform="matrix(-1 0 0 1 1091.8 196.185)" stroke="white" stroke-width="0.642682"/>
<rect x="-0.321341" y="0.321341" width="61.0548" height="61.0548" transform="matrix(-1 0 0 1 1030.75 196.185)" stroke="white" stroke-width="0.642682"/>
<rect x="-0.321341" y="0.321341" width="61.0548" height="61.0548" transform="matrix(-1 0 0 1 969.691 196.185)" stroke="white" stroke-width="0.642682"/>
<rect x="-0.321341" y="0.321341" width="61.0548" height="61.0548" transform="matrix(-1 0 0 1 908.637 196.185)" stroke="white" stroke-width="0.642682"/>
<rect x="-0.321341" y="0.321341" width="61.0548" height="61.0548" transform="matrix(-1 0 0 1 847.582 196.185)" stroke="white" stroke-width="0.642682"/>
<rect x="-0.321341" y="0.321341" width="61.0548" height="61.0548" transform="matrix(-1 0 0 1 1519.18 257.882)" stroke="white" stroke-width="0.642682"/>
<rect x="-0.321341" y="0.321341" width="61.0548" height="61.0548" transform="matrix(-1 0 0 1 1458.13 257.882)" stroke="white" stroke-width="0.642682"/>
<rect x="-0.321341" y="0.321341" width="61.0548" height="61.0548" transform="matrix(-1 0 0 1 1397.07 257.882)" stroke="white" stroke-width="0.642682"/>
<rect x="-0.321341" y="0.321341" width="61.0548" height="61.0548" transform="matrix(-1 0 0 1 1336.02 257.882)" stroke="white" stroke-width="0.642682"/>
<rect x="-0.321341" y="0.321341" width="61.0548" height="61.0548" transform="matrix(-1 0 0 1 1274.96 257.882)" stroke="white" stroke-width="0.642682"/>
<rect x="-0.321341" y="0.321341" width="61.0548" height="61.0548" transform="matrix(-1 0 0 1 1213.91 257.882)" stroke="white" stroke-width="0.642682"/>
<rect x="-0.321341" y="0.321341" width="61.0548" height="61.0548" transform="matrix(-1 0 0 1 1152.86 257.882)" stroke="white" stroke-width="0.642682"/>
<rect x="-0.321341" y="0.321341" width="61.0548" height="61.0548" transform="matrix(-1 0 0 1 1091.8 257.882)" stroke="white" stroke-width="0.642682"/>
<rect x="-0.321341" y="0.321341" width="61.0548" height="61.0548" transform="matrix(-1 0 0 1 1030.75 257.882)" stroke="white" stroke-width="0.642682"/>
<rect x="-0.321341" y="0.321341" width="61.0548" height="61.0548" transform="matrix(-1 0 0 1 969.691 257.882)" stroke="white" stroke-width="0.642682"/>
<rect x="-0.321341" y="0.321341" width="61.0548" height="61.0548" transform="matrix(-1 0 0 1 908.637 257.882)" stroke="white" stroke-width="0.642682"/>
<rect x="-0.321341" y="0.321341" width="61.0548" height="61.0548" transform="matrix(-1 0 0 1 847.582 257.882)" stroke="white" stroke-width="0.642682"/>
<rect x="-0.321341" y="0.321341" width="61.0548" height="61.0548" transform="matrix(-1 0 0 1 1519.18 319.58)" stroke="white" stroke-width="0.642682"/>
<rect x="-0.321341" y="0.321341" width="61.0548" height="61.0548" transform="matrix(-1 0 0 1 1458.13 319.58)" stroke="white" stroke-width="0.642682"/>
<rect x="-0.321341" y="0.321341" width="61.0548" height="61.0548" transform="matrix(-1 0 0 1 1397.07 319.58)" stroke="white" stroke-width="0.642682"/>
<rect width="61.6975" height="61.6975" transform="matrix(-1 0 0 1 1336.66 319.58)" fill="white"/>
<rect x="-0.321341" y="0.321341" width="61.0548" height="61.0548" transform="matrix(-1 0 0 1 1274.96 319.58)" stroke="white" stroke-width="0.642682"/>
<rect x="-0.321341" y="0.321341" width="61.0548" height="61.0548" transform="matrix(-1 0 0 1 1213.91 319.58)" stroke="white" stroke-width="0.642682"/>
<rect x="-0.321341" y="0.321341" width="61.0548" height="61.0548" transform="matrix(-1 0 0 1 1152.86 319.58)" stroke="white" stroke-width="0.642682"/>
<rect x="-0.321341" y="0.321341" width="61.0548" height="61.0548" transform="matrix(-1 0 0 1 1091.8 319.58)" stroke="white" stroke-width="0.642682"/>
<rect x="-0.321341" y="0.321341" width="61.0548" height="61.0548" transform="matrix(-1 0 0 1 1030.75 319.58)" stroke="white" stroke-width="0.642682"/>
<rect x="-0.321341" y="0.321341" width="61.0548" height="61.0548" transform="matrix(-1 0 0 1 969.691 319.58)" stroke="white" stroke-width="0.642682"/>
<rect x="-0.321341" y="0.321341" width="61.0548" height="61.0548" transform="matrix(-1 0 0 1 908.637 319.58)" stroke="white" stroke-width="0.642682"/>
<rect x="-0.321341" y="0.321341" width="61.0548" height="61.0548" transform="matrix(-1 0 0 1 847.582 319.58)" stroke="white" stroke-width="0.642682"/>
<rect x="-0.321341" y="0.321341" width="61.0548" height="61.0548" transform="matrix(-1 0 0 1 1519.18 381.277)" stroke="white" stroke-width="0.642682"/>
<rect x="-0.321341" y="0.321341" width="61.0548" height="61.0548" transform="matrix(-1 0 0 1 1458.13 381.277)" stroke="white" stroke-width="0.642682"/>
<rect width="61.6975" height="61.6975" transform="matrix(-1 0 0 1 1397.72 381.277)" fill="white"/>
<rect x="-0.321341" y="0.321341" width="61.0548" height="61.0548" transform="matrix(-1 0 0 1 1336.02 381.277)" stroke="white" stroke-width="0.642682"/>
<rect width="61.6975" height="61.6975" transform="matrix(-1 0 0 1 1275.61 381.277)" fill="white"/>
<rect x="-0.321341" y="0.321341" width="61.0548" height="61.0548" transform="matrix(-1 0 0 1 1213.91 381.277)" stroke="white" stroke-width="0.642682"/>
<rect width="61.6975" height="61.6975" transform="matrix(-1 0 0 1 1153.5 381.277)" fill="white"/>
<rect x="-0.321341" y="0.321341" width="61.0548" height="61.0548" transform="matrix(-1 0 0 1 1091.8 381.277)" stroke="white" stroke-width="0.642682"/>
<rect x="-0.321341" y="0.321341" width="61.0548" height="61.0548" transform="matrix(-1 0 0 1 1030.75 381.277)" stroke="white" stroke-width="0.642682"/>
<rect x="-0.321341" y="0.321341" width="61.0548" height="61.0548" transform="matrix(-1 0 0 1 969.691 381.277)" stroke="white" stroke-width="0.642682"/>
<rect x="-0.321341" y="0.321341" width="61.0548" height="61.0548" transform="matrix(-1 0 0 1 908.637 381.277)" stroke="white" stroke-width="0.642682"/>
<rect x="-0.321341" y="0.321341" width="61.0548" height="61.0548" transform="matrix(-1 0 0 1 847.582 381.277)" stroke="white" stroke-width="0.642682"/>
<rect x="-0.321341" y="0.321341" width="61.0548" height="61.0548" transform="matrix(-1 0 0 1 1519.18 442.975)" stroke="white" stroke-width="0.642682"/>
<rect width="61.6975" height="61.6975" transform="matrix(-1 0 0 1 1458.77 442.975)" fill="white"/>
<rect x="-0.321341" y="0.321341" width="61.0548" height="61.0548" transform="matrix(-1 0 0 1 1397.07 442.975)" stroke="white" stroke-width="0.642682"/>
<rect width="61.6975" height="61.6975" transform="matrix(-1 0 0 1 1336.66 442.975)" fill="white"/>
<rect x="-0.321341" y="0.321341" width="61.0548" height="61.0548" transform="matrix(-1 0 0 1 1274.96 442.975)" stroke="white" stroke-width="0.642682"/>
<rect width="61.6975" height="61.6975" transform="matrix(-1 0 0 1 1214.55 442.975)" fill="white"/>
<rect x="-0.321341" y="0.321341" width="61.0548" height="61.0548" transform="matrix(-1 0 0 1 1152.86 442.975)" stroke="white" stroke-width="0.642682"/>
<rect x="-0.321341" y="0.321341" width="61.0548" height="61.0548" transform="matrix(-1 0 0 1 1091.8 442.975)" stroke="white" stroke-width="0.642682"/>
<rect x="-0.321341" y="0.321341" width="61.0548" height="61.0548" transform="matrix(-1 0 0 1 1030.75 442.975)" stroke="white" stroke-width="0.642682"/>
<rect x="-0.321341" y="0.321341" width="61.0548" height="61.0548" transform="matrix(-1 0 0 1 969.691 442.975)" stroke="white" stroke-width="0.642682"/>
<rect x="-0.321341" y="0.321341" width="61.0548" height="61.0548" transform="matrix(-1 0 0 1 908.637 442.975)" stroke="white" stroke-width="0.642682"/>
<rect x="-0.321341" y="0.321341" width="61.0548" height="61.0548" transform="matrix(-1 0 0 1 847.582 442.975)" stroke="white" stroke-width="0.642682"/>
<rect x="-0.321341" y="0.321341" width="61.0548" height="61.0548" transform="matrix(-1 0 0 1 1519.18 504.672)" stroke="white" stroke-width="0.642682"/>
<rect x="-0.321341" y="0.321341" width="61.0548" height="61.0548" transform="matrix(-1 0 0 1 1458.13 504.672)" stroke="white" stroke-width="0.642682"/>
<rect width="61.6975" height="61.6975" transform="matrix(-1 0 0 1 1397.72 504.672)" fill="white"/>
<rect x="-0.321341" y="0.321341" width="61.0548" height="61.0548" transform="matrix(-1 0 0 1 1336.02 504.672)" stroke="white" stroke-width="0.642682"/>
<rect width="61.6975" height="61.6975" transform="matrix(-1 0 0 1 1275.61 504.672)" fill="white"/>
<rect x="-0.321341" y="0.321341" width="61.0548" height="61.0548" transform="matrix(-1 0 0 1 1213.91 504.672)" stroke="white" stroke-width="0.642682"/>
<rect x="-0.321341" y="0.321341" width="61.0548" height="61.0548" transform="matrix(-1 0 0 1 1152.86 504.672)" stroke="white" stroke-width="0.642682"/>
<rect x="-0.321341" y="0.321341" width="61.0548" height="61.0548" transform="matrix(-1 0 0 1 1091.8 504.672)" stroke="white" stroke-width="0.642682"/>
<rect x="-0.321341" y="0.321341" width="61.0548" height="61.0548" transform="matrix(-1 0 0 1 1030.75 504.672)" stroke="white" stroke-width="0.642682"/>
<rect x="-0.321341" y="0.321341" width="61.0548" height="61.0548" transform="matrix(-1 0 0 1 969.691 504.672)" stroke="white" stroke-width="0.642682"/>
<rect x="-0.321341" y="0.321341" width="61.0548" height="61.0548" transform="matrix(-1 0 0 1 908.637 504.672)" stroke="white" stroke-width="0.642682"/>
<rect x="-0.321341" y="0.321341" width="61.0548" height="61.0548" transform="matrix(-1 0 0 1 847.582 504.672)" stroke="white" stroke-width="0.642682"/>
<rect x="-0.321341" y="0.321341" width="61.0548" height="61.0548" transform="matrix(-1 0 0 1 1519.18 566.37)" stroke="white" stroke-width="0.642682"/>
<rect x="-0.321341" y="0.321341" width="61.0548" height="61.0548" transform="matrix(-1 0 0 1 1458.13 566.37)" stroke="white" stroke-width="0.642682"/>
<rect x="-0.321341" y="0.321341" width="61.0548" height="61.0548" transform="matrix(-1 0 0 1 1397.07 566.37)" stroke="white" stroke-width="0.642682"/>
<rect x="-0.321341" y="0.321341" width="61.0548" height="61.0548" transform="matrix(-1 0 0 1 1336.02 566.37)" stroke="white" stroke-width="0.642682"/>
<rect x="-0.321341" y="0.321341" width="61.0548" height="61.0548" transform="matrix(-1 0 0 1 1274.96 566.37)" stroke="white" stroke-width="0.642682"/>
<rect x="-0.321341" y="0.321341" width="61.0548" height="61.0548" transform="matrix(-1 0 0 1 1213.91 566.37)" stroke="white" stroke-width="0.642682"/>
<rect x="-0.321341" y="0.321341" width="61.0548" height="61.0548" transform="matrix(-1 0 0 1 1152.86 566.37)" stroke="white" stroke-width="0.642682"/>
<rect x="-0.321341" y="0.321341" width="61.0548" height="61.0548" transform="matrix(-1 0 0 1 1091.8 566.37)" stroke="white" stroke-width="0.642682"/>
<rect x="-0.321341" y="0.321341" width="61.0548" height="61.0548" transform="matrix(-1 0 0 1 1030.75 566.37)" stroke="white" stroke-width="0.642682"/>
<rect x="-0.321341" y="0.321341" width="61.0548" height="61.0548" transform="matrix(-1 0 0 1 969.691 566.37)" stroke="white" stroke-width="0.642682"/>
<rect x="-0.321341" y="0.321341" width="61.0548" height="61.0548" transform="matrix(-1 0 0 1 908.637 566.37)" stroke="white" stroke-width="0.642682"/>
<rect x="-0.321341" y="0.321341" width="61.0548" height="61.0548" transform="matrix(-1 0 0 1 847.582 566.37)" stroke="white" stroke-width="0.642682"/>
<rect x="-0.321341" y="0.321341" width="61.0548" height="61.0548" transform="matrix(-1 0 0 1 1519.18 628.067)" stroke="white" stroke-width="0.642682"/>
<rect x="-0.321341" y="0.321341" width="61.0548" height="61.0548" transform="matrix(-1 0 0 1 1458.13 628.067)" stroke="white" stroke-width="0.642682"/>
<rect x="-0.321341" y="0.321341" width="61.0548" height="61.0548" transform="matrix(-1 0 0 1 1397.07 628.067)" stroke="white" stroke-width="0.642682"/>
<rect x="-0.321341" y="0.321341" width="61.0548" height="61.0548" transform="matrix(-1 0 0 1 1336.02 628.067)" stroke="white" stroke-width="0.642682"/>
<rect x="-0.321341" y="0.321341" width="61.0548" height="61.0548" transform="matrix(-1 0 0 1 1274.96 628.067)" stroke="white" stroke-width="0.642682"/>
<rect x="-0.321341" y="0.321341" width="61.0548" height="61.0548" transform="matrix(-1 0 0 1 1213.91 628.067)" stroke="white" stroke-width="0.642682"/>
<rect x="-0.321341" y="0.321341" width="61.0548" height="61.0548" transform="matrix(-1 0 0 1 1152.86 628.067)" stroke="white" stroke-width="0.642682"/>
<rect x="-0.321341" y="0.321341" width="61.0548" height="61.0548" transform="matrix(-1 0 0 1 1091.8 628.067)" stroke="white" stroke-width="0.642682"/>
<rect x="-0.321341" y="0.321341" width="61.0548" height="61.0548" transform="matrix(-1 0 0 1 1030.75 628.067)" stroke="white" stroke-width="0.642682"/>
<rect x="-0.321341" y="0.321341" width="61.0548" height="61.0548" transform="matrix(-1 0 0 1 969.691 628.067)" stroke="white" stroke-width="0.642682"/>
<rect x="-0.321341" y="0.321341" width="61.0548" height="61.0548" transform="matrix(-1 0 0 1 908.637 628.067)" stroke="white" stroke-width="0.642682"/>
<rect x="-0.321341" y="0.321341" width="61.0548" height="61.0548" transform="matrix(-1 0 0 1 847.582 628.067)" stroke="white" stroke-width="0.642682"/>
</g>
</mask>
<g mask="url(#mask1_28674_28693)">
<g filter="url(#filter2_f_28674_28693)">
<ellipse cx="432.838" cy="230.712" rx="432.838" ry="230.712" transform="matrix(-0.982365 -0.186971 -0.35295 0.935642 939.752 -72.125)" fill="#FCFCFC"/>
</g>
<g filter="url(#filter3_f_28674_28693)">
<ellipse cx="349.748" cy="186.424" rx="349.748" ry="186.424" transform="matrix(-0.982365 -0.186971 -0.35295 0.935642 1617.13 29.3379)" fill="#9BA7FF"/>
</g>
</g>
</g>
<defs>
<filter id="filter0_f_28674_28693" x="543.155" y="-271.503" width="1073.45" height="668.628" filterUnits="userSpaceOnUse" color-interpolation-filters="sRGB">
<feFlood flood-opacity="0" result="BackgroundImageFix"/>
<feBlend mode="normal" in="SourceGraphic" in2="BackgroundImageFix" result="shape"/>
<feGaussianBlur stdDeviation="51.8578" result="effect1_foregroundBlur_28674_28693"/>
</filter>
<filter id="filter1_f_28674_28693" x="148.403" y="-91.1887" width="749.106" height="506.045" filterUnits="userSpaceOnUse" color-interpolation-filters="sRGB">
<feFlood flood-opacity="0" result="BackgroundImageFix"/>
<feBlend mode="normal" in="SourceGraphic" in2="BackgroundImageFix" result="shape"/>
<feGaussianBlur stdDeviation="41.903" result="effect1_foregroundBlur_28674_28693"/>
</filter>
<filter id="filter2_f_28674_28693" x="-103.61" y="-271.503" width="1073.45" height="668.628" filterUnits="userSpaceOnUse" color-interpolation-filters="sRGB">
<feFlood flood-opacity="0" result="BackgroundImageFix"/>
<feBlend mode="normal" in="SourceGraphic" in2="BackgroundImageFix" result="shape"/>
<feGaussianBlur stdDeviation="51.8578" result="effect1_foregroundBlur_28674_28693"/>
</filter>
<filter id="filter3_f_28674_28693" x="774.055" y="-131.766" width="867.389" height="540.274" filterUnits="userSpaceOnUse" color-interpolation-filters="sRGB">
<feFlood flood-opacity="0" result="BackgroundImageFix"/>
<feBlend mode="normal" in="SourceGraphic" in2="BackgroundImageFix" result="shape"/>
<feGaussianBlur stdDeviation="41.903" result="effect1_foregroundBlur_28674_28693"/>
</filter>
</defs>
</svg>
