<svg width="69" height="69" viewBox="0 0 69 69" fill="none" xmlns="http://www.w3.org/2000/svg">
<path d="M31.709 26.2281C33.0424 24.8947 35.2044 24.8947 36.5379 26.2281L42.0192 31.7095C43.3527 33.0429 43.3527 35.2049 42.0192 36.5384L36.5379 42.0197C35.2044 43.3532 33.0424 43.3532 31.709 42.0197L26.2276 36.5384C24.8942 35.2049 24.8942 33.0429 26.2276 31.7095L31.709 26.2281Z" fill="#A950FF"/>
<path d="M56.9551 26.1844C58.2647 24.8748 60.388 24.8748 61.6977 26.1844L67.2654 31.7522C68.575 33.0618 68.575 35.1851 67.2654 36.4947L61.6977 42.0624C60.388 43.372 58.2647 43.372 56.9551 42.0624L51.3874 36.4947C50.0778 35.1851 50.0778 33.0618 51.3874 31.7522L56.9551 26.1844Z" fill="#A950FF"/>
<path d="M31.7522 0.982207C33.0618 -0.327401 35.1851 -0.327403 36.4947 0.982205L42.0624 6.54994C43.372 7.85955 43.372 9.98284 42.0624 11.2925L36.4947 16.8602C35.1851 18.1698 33.0618 18.1698 31.7522 16.8602L26.1844 11.2925C24.8748 9.98285 24.8748 7.85955 26.1844 6.54994L31.7522 0.982207Z" fill="#E9C1FF"/>
<path d="M29.419 19.1082C30.7524 20.4417 30.7524 22.6037 29.419 23.9371L23.9376 29.4185C22.6042 30.7519 20.4422 30.7519 19.1087 29.4185L13.6274 23.9371C12.2939 22.6037 12.2939 20.4417 13.6274 19.1082L19.1087 13.6269C20.4422 12.2934 22.6042 12.2934 23.9376 13.6269L29.419 19.1082Z" fill="#CD88FF"/>
<path d="M16.8602 31.7521C18.1698 33.0618 18.1698 35.1851 16.8602 36.4947L11.2925 42.0624C9.98284 43.372 7.85955 43.372 6.54994 42.0624L0.982206 36.4947C-0.327402 35.1851 -0.327402 33.0618 0.982206 31.7521L6.54994 26.1844C7.85955 24.8748 9.98285 24.8748 11.2925 26.1844L16.8602 31.7521Z" fill="#A950FF"/>
<path d="M54.621 19.1082C55.9544 20.4417 55.9544 22.6037 54.621 23.9371L49.1396 29.4185C47.8061 30.7519 45.6442 30.7519 44.3107 29.4185L38.8294 23.9371C37.4959 22.6037 37.4959 20.4417 38.8294 19.1082L44.3107 13.6269C45.6442 12.2934 47.8061 12.2934 49.1396 13.6269L54.621 19.1082Z" fill="#CD88FF"/>
<path d="M39.5179 55.107C42.497 58.0861 42.497 62.9161 39.5179 65.8952C36.5388 68.8743 31.7088 68.8743 28.7297 65.8952C25.7506 62.9161 25.7506 58.0861 28.7297 55.107C31.7088 52.1279 36.5388 52.1279 39.5179 55.107Z" fill="#F62E76"/>
</svg>
